<svg width="20" height="15" viewBox="0 0 20 15" fill="none" xmlns="http://www.w3.org/2000/svg">
<path d="M1.69891 6.5C1.14663 6.5 0.698914 6.94772 0.698914 7.5C0.698914 8.05228 1.14663 8.5 1.69891 8.5V6.5ZM19.0082 8.20711C19.3987 7.81658 19.3987 7.18342 19.0082 6.79289L12.6442 0.428932C12.2537 0.0384078 11.6205 0.0384078 11.23 0.428932C10.8395 0.819457 10.8395 1.45262 11.23 1.84315L16.8869 7.5L11.23 13.1569C10.8395 13.5474 10.8395 14.1805 11.23 14.5711C11.6205 14.9616 12.2537 14.9616 12.6442 14.5711L19.0082 8.20711ZM1.69891 8.5H18.3011V6.5H1.69891V8.5Z" fill="white"/>
</svg>
