<svg width="33" height="33" viewBox="0 0 33 33" fill="none" xmlns="http://www.w3.org/2000/svg">
<circle cx="16.499" cy="16.5" r="16" stroke="url(#paint0_linear_1_2294)"/>
<path d="M6.99902 15C6.44674 15 5.99902 15.4477 5.99902 16C5.99902 16.5523 6.44674 17 6.99902 17L6.99902 15ZM26.7061 16.7071C27.0967 16.3166 27.0967 15.6834 26.7061 15.2929L20.3422 8.92893C19.9516 8.53841 19.3185 8.53841 18.928 8.92893C18.5374 9.31946 18.5374 9.95262 18.928 10.3431L24.5848 16L18.928 21.6569C18.5374 22.0474 18.5374 22.6805 18.928 23.0711C19.3185 23.4616 19.9516 23.4616 20.3422 23.0711L26.7061 16.7071ZM6.99902 17L25.999 17L25.999 15L6.99902 15L6.99902 17Z" fill="#222222"/>
<defs>
<linearGradient id="paint0_linear_1_2294" x1="-4.95098" y1="-1.23344e-07" x2="45.374" y2="34.1" gradientUnits="userSpaceOnUse">
<stop stop-color="#20232C"/>
<stop offset="1" stop-color="#545A6C"/>
<stop offset="1" stop-color="#4F5566"/>
</linearGradient>
</defs>
</svg>
