<svg width="30" height="26" viewBox="0 0 30 26" fill="none" xmlns="http://www.w3.org/2000/svg">
<path d="M0 0.991533C0 1.53321 0.442008 1.99646 0.962214 1.99646H5.35512L7.43484 16.5168C7.70825 18.3946 8.68266 19.5716 10.5677 19.5716H25.7369C26.2432 19.5716 26.6852 19.1484 26.6852 18.5802C26.6852 18.0115 26.2432 17.5883 25.7369 17.5883H10.7884C10.0475 17.5883 9.59275 17.059 9.47573 16.2527L9.26776 14.8641H25.7624C27.6602 14.8641 28.6352 13.6735 28.908 11.7828L29.9479 4.78666C29.9755 4.62053 29.9929 4.45281 30 4.28448C30 3.6497 29.5319 3.21297 28.8171 3.21297H7.60399L7.34388 1.53377C7.21411 0.515309 6.8503 -0.000976562 5.52483 -0.000976562H0.961659C0.442008 -0.000976562 0 0.46227 0 0.991533ZM9.47628 23.8565C9.47628 25.06 10.4124 25.999 11.5948 25.999C11.872 26.0013 12.1468 25.9475 12.4034 25.8406C12.6599 25.7338 12.8929 25.576 13.0889 25.3766C13.2849 25.1772 13.44 24.9401 13.545 24.6791C13.65 24.4181 13.7029 24.1385 13.7006 23.8565C13.7018 23.5748 13.6481 23.2957 13.5427 23.0352C13.4373 22.7747 13.2822 22.5381 13.0864 22.3389C12.8907 22.1397 12.6581 21.982 12.4021 21.8747C12.146 21.7675 11.8717 21.7129 11.5948 21.7141C10.4124 21.7141 9.47628 22.6665 9.47628 23.8565ZM21.6296 23.8565C21.6296 25.06 22.5785 25.999 23.7481 25.999C24.931 25.999 25.8666 25.06 25.8666 23.8565C25.8666 22.6659 24.931 21.7141 23.7481 21.7141C22.5785 21.7141 21.6296 22.6665 21.6296 23.8565Z" fill="#222222"/>
</svg>
