<svg width="226" height="41" viewBox="0 0 226 41" fill="none" xmlns="http://www.w3.org/2000/svg">
<g clip-path="url(#clip0_1_2081)">
<path d="M0.71748 40.1854C0.71748 35.2081 0.708262 30.3669 0.719784 25.5234C0.73822 17.6802 0.793525 9.83692 0.777395 1.99366C0.77509 0.936813 1.05162 0.634528 2.11625 0.643758C7.49244 0.696831 12.8709 0.574533 18.2448 0.694524C22.849 0.796055 27.4739 1.06603 31.6541 3.35509C42.1715 9.11005 44.5196 19.3347 40.404 28.4124C37.6133 34.5689 32.3754 37.9679 25.8839 39.3616C23.462 39.8808 20.9502 40.1416 18.4706 40.1946C12.8663 40.3146 7.25739 40.2339 1.65076 40.2316C1.39267 40.2293 1.12997 40.2062 0.71748 40.1854ZM12.5207 7.79014C12.5207 16.3164 12.5207 24.4412 12.5207 32.7737C15.2145 32.6398 17.8254 32.656 20.3971 32.3445C22.932 32.0376 25.1534 30.893 26.8057 28.8486C29.7346 25.2258 30.6817 21.1068 29.4627 16.6349C28.3565 12.5782 25.9715 9.41695 21.6507 8.57009C18.7126 7.99782 15.6593 8.03705 12.5207 7.79014Z" fill="#614945"/>
<path d="M84.0818 0.636829C88.05 0.636829 91.7992 0.636829 95.666 0.636829C95.666 5.69722 95.666 10.7115 95.666 15.788C100.913 15.788 106.045 15.788 111.38 15.788C111.38 10.7645 111.38 5.72029 111.38 0.634521C115.373 0.634521 119.162 0.634521 122.943 0.634521C122.943 13.7551 122.943 26.841 122.943 39.987C119.035 39.987 115.283 39.987 111.387 39.987C111.387 34.652 111.387 29.2985 111.387 23.8712C106.112 23.8712 100.982 23.8712 95.6891 23.8712C95.6891 29.2016 95.6891 34.5527 95.6891 39.9754C91.7117 39.9754 87.8956 39.9754 84.0795 39.9754C84.0818 26.8572 84.0818 13.8035 84.0818 0.636829Z" fill="#614945"/>
<path d="M36.3667 40.2363C37.2585 38.0695 38.0812 36.0597 38.9108 34.0498C43.3721 23.2414 47.8426 12.4376 52.2786 1.61765C52.5713 0.902321 52.9008 0.627726 53.6866 0.634649C57.641 0.676184 61.5953 0.660032 65.5497 0.643879C66.1788 0.641571 66.5959 0.747717 66.8678 1.43305C71.8914 14.1682 76.9427 26.8919 81.9847 39.6179C82.0377 39.7517 82.0631 39.8994 82.1299 40.1532C81.7428 40.1855 81.4202 40.2386 81.0975 40.2386C77.528 40.2432 73.9562 40.2132 70.3867 40.2617C69.5502 40.2732 69.1722 39.9986 68.9049 39.2187C68.1975 37.1534 67.3679 35.1274 66.6489 33.0668C66.3977 32.3446 66.0636 32.0584 65.2571 32.0654C60.5353 32.1069 55.8136 32.1023 51.0919 32.07C50.3568 32.0654 50.0019 32.3053 49.7461 32.9861C48.9257 35.1759 48.0547 37.345 47.1605 39.5071C47.0384 39.8002 46.6858 40.2017 46.4347 40.2063C43.1486 40.2524 39.8579 40.2363 36.3667 40.2363ZM63.4297 24.589C61.7382 20.1678 60.0814 15.8343 58.3047 11.1915C56.4934 15.8343 54.8043 20.1586 53.0737 24.589C56.5764 24.589 59.9293 24.589 63.4297 24.589Z" fill="#614945"/>
<path d="M170.658 40.1162C167.098 40.1162 163.685 40.1162 160.275 40.1162C157.756 40.1162 157.756 40.1139 156.883 37.7579C156.27 36.1034 155.638 34.4558 155.046 32.7944C154.839 32.2106 154.532 31.9591 153.878 31.9614C149.041 31.9868 144.204 31.9591 139.369 32.0076C139.014 32.0122 138.489 32.4114 138.341 32.7552C137.403 34.9404 136.571 37.1672 135.65 39.3593C135.518 39.6731 135.104 40.077 134.816 40.0816C131.557 40.1323 128.299 40.1139 124.842 40.1139C125.296 38.9647 125.681 37.9471 126.096 36.9433C130.969 25.1427 135.857 13.3466 140.706 1.53676C141.037 0.729131 141.42 0.461458 142.289 0.470689C146.204 0.521454 150.119 0.502994 154.034 0.484534C154.673 0.482226 155.067 0.616062 155.334 1.29447C160.355 14.0297 165.404 26.751 170.446 39.477C170.499 39.6178 170.541 39.7585 170.658 40.1162ZM146.771 11.0968C144.962 15.7372 143.266 20.0938 141.551 24.492C145.063 24.492 148.416 24.492 151.893 24.492C150.2 20.0569 148.538 15.7188 146.771 11.0968Z" fill="#614945"/>
<path d="M211.578 26.3588C210.776 31.4746 208.294 35.4435 203.761 37.7464C195.274 42.0615 186.591 42.0915 178.108 37.7903C172.536 34.9635 169.402 30.1662 168.651 23.9198C167.872 17.4518 169.013 11.5053 173.652 6.60183C176.885 3.18208 180.908 1.23684 185.515 0.519205C191.128 -0.355344 196.7 -0.274581 202.035 1.95448C207.927 4.41891 210.7 9.19317 211.649 15.4604C207.455 15.6681 203.344 15.8734 199.208 16.0788C199.088 15.2758 198.996 14.5974 198.883 13.9213C198.274 10.2985 195.928 8.12248 192.287 7.79712C186.884 7.31254 183.602 9.66621 182.335 14.9966C181.459 18.6794 181.482 22.4083 182.21 26.0957C183.148 30.8423 186.365 33.2675 191.267 33.136C195.744 33.016 198.438 30.9623 199.754 26.5965C199.936 25.9919 200.12 25.6689 200.814 25.7058C204.261 25.8973 207.711 26.0519 211.161 26.225C211.267 26.2296 211.373 26.2919 211.578 26.3588Z" fill="#614945"/>
<path d="M225.713 40.1369C221.703 40.1369 217.846 40.1369 213.986 40.1369C213.986 26.9772 213.986 13.8843 213.986 0.706055C217.965 0.706055 221.818 0.706055 225.713 0.706055C225.713 13.8289 225.713 26.9472 225.713 40.1369Z" fill="#614945"/>
</g>
<defs>
<clipPath id="clip0_1_2081">
<rect width="225" height="41" fill="white" transform="translate(0.712891)"/>
</clipPath>
</defs>
</svg>
