<svg width="36" height="36" viewBox="0 0 36 36" fill="none" xmlns="http://www.w3.org/2000/svg">
<path d="M13.02 17.8652L15.495 18.4802L14.07 24.2403C13.74 25.5903 14.4 26.0402 15.54 25.2452L23.31 19.8602C24.255 19.2002 24.12 18.4352 22.995 18.1502L20.52 17.5352L21.945 11.7752C22.275 10.4252 21.615 9.97523 20.475 10.7702L12.705 16.1553C11.76 16.8153 11.895 17.5802 13.02 17.8652Z" stroke="#353535" stroke-width="2.75" stroke-miterlimit="10" stroke-linecap="round" stroke-linejoin="round"/>
<path d="M6 9.00024C4.125 11.5052 3 14.6252 3 18.0002C3 26.2802 9.72 33.0002 18 33.0002C26.28 33.0002 33 26.2802 33 18.0002C33 9.72024 26.28 3.00024 18 3.00024C15.855 3.00024 13.8 3.45021 11.955 4.27521" stroke="#353535" stroke-width="2.75" stroke-linecap="round" stroke-linejoin="round"/>
</svg>
