<svg width="96" height="55" viewBox="0 0 96 55" fill="none" xmlns="http://www.w3.org/2000/svg">
<path d="M39.5921 6.16905C38.8864 5.55714 37.7417 5.19286 36.6165 5.19048C33.9222 5.18571 31.7153 7.27143 31.7129 9.96667C31.7056 12.619 33.9222 14.7143 36.6165 14.7286C38.1346 14.7357 39.4514 14.1262 40.3511 13.0619V10.4429C39.8758 11.2452 38.9009 12.3 38.0327 12.6571C37.5962 12.8286 37.1403 12.9476 36.6165 12.9476C34.931 12.9476 33.5414 11.6595 33.5414 9.96667C33.5414 8.40714 34.8219 6.95476 36.6165 6.9619C37.4628 6.97143 38.2219 7.30952 38.7724 7.85C39.3544 8.3881 40.2541 9.54524 40.6833 10.0024C41.7771 11.1643 43.3607 11.8857 45.1019 11.8881C48.4267 11.8976 51.1331 9.25476 51.1331 5.98571C51.1331 2.71667 48.4194 0 45.1019 0C43.1594 0 41.4618 0.983333 40.3511 2.37619V5.9381C41.1975 3.67619 42.7059 1.88095 45.1019 1.88095C47.4979 1.88095 49.2464 3.73571 49.2415 5.98095C49.2367 8.24048 47.3888 10.0571 45.1019 10.0524C44.0809 10.0524 43.1279 9.67857 42.4027 9.08095C41.5103 8.38571 40.5184 6.9381 39.5921 6.16667" fill="#ED1C24"/>
<path d="M0 16.0452H13.3356V19.6857C13.3356 19.6857 12.6614 18.2548 11.2112 18.25H5.03451V24.5452H11.7351V27.8857C11.7351 27.8857 11.5144 26.819 9.89441 26.8167H5.03451V35.419C5.03451 36.6857 6.44106 37.4357 6.44106 37.4357H0.0897287C0.0897287 37.4357 1.41868 36.769 1.41868 35.419V18.2857C1.41868 16.85 0 16.0428 0 16.0428" fill="#ED1C24"/>
<path d="M33.5318 16.0524H40.3148C40.3148 16.0524 38.7943 16.7619 38.7943 17.9214V37.9881C38.7943 44.7714 31.873 45.8809 31.5093 45.8571C32.1034 45.4857 34.9772 43.0833 34.9844 37.9881V17.9214C34.9893 16.8286 33.5294 16.0524 33.5294 16.0524" fill="#ED1C24"/>
<path d="M41.2751 16.05H48.0848C48.0848 16.05 46.5691 16.7619 46.5691 17.9476V35.4238C46.5691 36.6786 48.0848 37.4595 48.0848 37.4595H41.2751C41.2751 37.4595 42.7884 36.6833 42.7884 35.4238V17.9476C42.7884 16.7619 41.2751 16.05 41.2751 16.05Z" fill="#ED1C24"/>
<path d="M49.443 16.05H64.4228L63.1545 19.9405C63.1545 19.9405 62.7689 18.3119 61.3211 18.3119H58.2121V35.4262C58.2121 36.5047 59.6842 37.4452 59.6842 37.4452H53.0103C53.0103 37.4452 54.4605 36.6024 54.4605 35.4262V18.3119H50.7016C49.6394 18.3119 48.1165 20.2643 48.1165 20.2643L49.4454 16.05H49.443Z" fill="#ED1C24"/>
<path d="M89.4474 16.05H95.9976C95.9976 16.05 94.591 16.7833 94.591 17.9428V30.8976C94.5813 36.1571 90.1434 37.7738 87.0659 37.7738C83.9885 37.7738 79.2037 36.1357 79.2086 30.8976V17.9428C79.2086 16.7833 77.7705 16.05 77.7705 16.05H84.5196C84.5196 16.05 83.0087 16.7595 83.0087 17.9428V30.8976C83.0087 33.6476 84.8809 35.4571 87.0659 35.4571C89.2509 35.4571 90.9097 33.5762 90.9146 30.8976V17.9428C90.917 16.7833 89.4449 16.05 89.4449 16.05" fill="#ED1C24"/>
<path d="M25.6673 16.05H32.3484C32.3484 16.05 30.9273 16.8167 30.9273 17.9619V30.8809C30.9273 36.1714 26.2832 37.8309 23.1573 37.8309C20.0313 37.8309 15.3072 36.1428 15.3072 30.8809V17.9619C15.3048 16.8119 13.9443 16.05 13.9443 16.05H20.691C20.691 16.05 19.1195 16.8119 19.1195 17.9619V30.8809C19.1171 33.6238 20.9699 35.5143 23.1549 35.519C25.3399 35.5238 27.1054 33.5833 27.1054 30.8809L27.1102 17.9619C27.1102 16.8095 25.6648 16.05 25.6648 16.05" fill="#ED1C24"/>
<path d="M75.7627 19.4786C75.7627 19.4786 74.8169 17.8524 72.0886 17.85C69.3483 17.831 67.8568 19.25 67.8544 21.0762C67.8399 23.1476 69.4259 23.9333 71.8898 25.0929C74.2154 26.1929 77.7294 27.7167 77.7197 31.5333C77.7149 34.9714 74.6107 37.8405 69.05 37.8405C67.3379 37.8333 64.9807 37.2833 64.9807 37.2833L63.7026 33.1786C64.8837 34.2976 66.9668 35.5143 69.1203 35.5143C71.2738 35.5143 73.9899 34.1595 73.9899 32.0024C73.9899 27.8119 64.0882 28.5119 64.0882 21.5167C64.0882 19.1 65.7882 15.619 71.703 15.619C73.6262 15.619 75.7675 16.1714 75.7675 16.1714L75.7627 19.4786Z" fill="#ED1C24"/>
<path d="M12.1959 48.2595V48.7952H10.2413V50.5357H12.0601V51.0714H10.2413V53.6167H9.63501V48.2595H12.1959Z" fill="#ED1C24"/>
<path d="M13.4764 48.2595V52.1143C13.4764 52.531 13.537 53.2071 14.5071 53.2071C15.4771 53.2071 15.5377 52.531 15.5377 52.1143V48.2595H16.144V52.3286C16.144 53.2809 15.4989 53.7429 14.5071 53.7429C13.5152 53.7429 12.8701 53.2809 12.8701 52.3286V48.2595H13.4764Z" fill="#ED1C24"/>
<path d="M19.425 48.2595V52.3143C19.425 53.3929 18.9254 53.7429 18.1591 53.7429C17.2109 53.7429 16.9102 53.2071 16.9102 52.3071V51.9571H17.5164V52.269C17.5164 52.7452 17.531 53.2071 18.1445 53.2071C18.7581 53.2071 18.8187 52.7595 18.8187 52.2833V48.2571H19.425V48.2595Z" fill="#ED1C24"/>
<path d="M21.1688 48.2595H20.5625V53.6167H21.1688V48.2595Z" fill="#ED1C24"/>
<path d="M23.8653 53.6167H23.259V48.7952H21.8428V48.2595H25.2743V48.7952H23.8653V53.6167Z" fill="#ED1C24"/>
<path d="M26.3585 51.919C26.3585 52.7071 26.5864 53.2071 27.3891 53.2071C28.0027 53.2071 28.4271 52.9476 28.4271 52.3143C28.4271 51.6214 28.0948 51.4524 27.5395 51.2429L26.7368 50.9452C26.2372 50.7595 25.8589 50.3881 25.8589 49.5381C25.8589 48.6881 26.4579 48.1548 27.3455 48.1548C28.2937 48.1548 28.8539 48.6833 28.9 49.6643H28.2937C28.2937 49.0762 27.9978 48.6905 27.3916 48.6905C26.7174 48.6905 26.4894 49.0928 26.4894 49.5381C26.4894 50.0286 26.618 50.2452 26.9672 50.3714L27.8378 50.6929C28.7011 51.0119 29.0576 51.519 29.0576 52.2262C29.0576 53.2381 28.4222 53.7452 27.3746 53.7452C26.3269 53.7452 25.7522 53.0762 25.7522 51.9214H26.3585V51.919Z" fill="#ED1C24"/>
<path d="M30.6048 48.2595V52.1143C30.6048 52.531 30.6654 53.2071 31.6355 53.2071C32.6055 53.2071 32.6661 52.531 32.6661 52.1143V48.2595H33.2724V52.3286C33.2724 53.2809 32.6273 53.7429 31.6355 53.7429C30.6436 53.7429 29.9985 53.2809 29.9985 52.3286V48.2595H30.6048Z" fill="#ED1C24"/>
<path d="M37.7345 50.8643H39.5606V53.6167H39.0901V52.8214H39.0755C38.9155 53.4309 38.3941 53.7452 37.7878 53.7452C36.2042 53.7452 36.0757 52.369 36.0757 51.0286C36.0757 49.6881 36.3036 48.1571 37.9091 48.1571C38.947 48.1571 39.4636 48.7905 39.5072 49.8167H38.8937C38.8937 49.1619 38.6051 48.6928 37.9091 48.6928C36.8323 48.6928 36.7038 49.8024 36.7038 50.9929C36.7038 52.3476 36.8323 53.2095 37.7563 53.2095C38.8694 53.2095 38.9543 52.2357 38.9543 51.4024H37.7345V50.8667V50.8643Z" fill="#ED1C24"/>
<path d="M43.2516 48.2595V48.7952H41.1224V50.5357H43.1158V51.0714H41.1224V53.0809H43.2589V53.6167H40.5161V48.2595H43.2516Z" fill="#ED1C24"/>
<path d="M45.1699 48.2595L46.7147 52.6429C46.7826 52.8286 46.8359 52.9857 46.9038 53.231H46.9257C46.9184 53.0381 46.9038 52.8286 46.9038 52.6357V48.2595H47.5101V53.6167H46.5183L44.9953 49.331C44.9056 49.0857 44.8425 48.8476 44.7916 48.5262H44.7746C44.7819 48.7929 44.7916 49.069 44.7916 49.3452V53.6167H44.1853V48.2595H45.1699Z" fill="#ED1C24"/>
<path d="M51.383 48.2595V48.7952H49.2537V50.5357H51.2472V51.0714H49.2537V53.0809H51.3902V53.6167H48.6475V48.2595H51.383Z" fill="#ED1C24"/>
<path d="M52.9205 53.6167H52.3142V48.2595H53.973C54.9285 48.2595 55.5566 48.7143 55.5566 49.719C55.5566 50.3286 55.2001 50.8643 54.572 50.9548V50.969C55.1492 51.0357 55.5032 51.519 55.5032 52.181C55.5032 53.2976 55.6026 53.3357 55.6851 53.4976V53.6167H55.0715C54.9503 53.2667 54.8969 52.9548 54.8969 52.3738C54.8969 51.6667 54.5793 51.2571 53.9051 51.2571H52.9205V53.6167ZM52.9205 50.7214H53.973C54.3974 50.7214 54.9285 50.5286 54.9285 49.7405C54.9285 48.9524 54.4822 48.7952 53.9512 48.7952H52.9205V50.7238V50.7214Z" fill="#ED1C24"/>
<path d="M57.7173 48.2595H58.52L60.0503 53.6167H59.3834L58.9517 52.0762H57.2299L56.8297 53.6167H56.1628L57.7173 48.2595ZM58.1126 48.6905H58.0981L57.3778 51.5405H58.8183L58.1126 48.6905Z" fill="#ED1C24"/>
<path d="M61.3404 53.0809H63.5691V53.6167H60.7341V48.2595H61.3404V53.0809Z" fill="#ED1C24"/>
<path d="M66.7 50.0905H66.7073C66.8892 49.719 67.2529 49.5405 67.5342 49.5405C68.5576 49.5405 68.8608 50.4548 68.8608 51.5643C68.8608 52.769 68.5892 53.7238 67.5731 53.7238C67.1632 53.7238 66.9207 53.5309 66.7024 53.2095V55.0024H66.1277V49.6452H66.7024V50.0928L66.7 50.0905ZM66.7 51.6238C66.7 52.3833 66.7461 53.2452 67.4736 53.2452C68.0726 53.2452 68.2618 52.6357 68.2618 51.5643C68.2618 51.0428 68.2012 50.0167 67.4663 50.0167C66.7315 50.0167 66.7 50.9309 66.7 51.6238Z" fill="#ED1C24"/>
<path d="M69.6999 50.7143C69.6999 49.8952 70.1097 49.5381 70.8663 49.5381C71.6763 49.5381 71.9964 50.0143 71.9964 50.55V52.8928C71.9964 53.0786 72.0643 53.2119 72.2171 53.2119C72.2559 53.2119 72.3166 53.2048 72.3457 53.1976V53.6143C72.3068 53.6357 72.2098 53.6595 72.1104 53.6595C71.7612 53.6595 71.5793 53.6143 71.4896 53.0786H71.475C71.3392 53.4286 70.9682 53.719 70.5802 53.719C69.8745 53.719 69.5422 53.3476 69.5422 52.6262C69.5422 51.9048 69.8454 51.6667 70.5511 51.3976C70.8154 51.3 71.2107 51.1286 71.2713 51.1C71.4144 51.0333 71.4241 50.8309 71.4241 50.6309C71.4241 50.1762 71.2713 50.0143 70.8106 50.0143C70.3789 50.0143 70.2188 50.2524 70.2188 50.7143H69.7047H69.6999ZM70.1388 52.6048C70.1388 52.9548 70.2916 53.2143 70.6772 53.2143C71.2762 53.2143 71.4193 52.819 71.4193 52.4095V51.45C70.8203 51.7928 70.1388 51.8357 70.1388 52.6024" fill="#ED1C24"/>
<path d="M73.6334 50.2905H73.6406C73.8516 49.8214 74.1402 49.5905 74.6495 49.5905C74.7028 49.5905 74.7489 49.5976 74.8095 49.6048V50.1548C74.7271 50.1405 74.6422 50.1333 74.567 50.1333C73.9753 50.1333 73.6358 50.5643 73.6358 51.2048V53.6167H73.061V49.6429H73.6358V50.2905H73.6334Z" fill="#ED1C24"/>
<path d="M76.2621 49.6428H76.929V50.119H76.2621V52.8286C76.2621 53.0595 76.2912 53.1405 76.5265 53.1405H76.9121V53.6167H76.284C75.9347 53.6167 75.685 53.5643 75.685 52.9619V50.119H75.1248V49.6428H75.685V48.5643H76.2597V49.6428H76.2621Z" fill="#ED1C24"/>
<path d="M78.1878 50.0809H78.195C78.4303 49.7524 78.7625 49.5381 79.1942 49.5381C79.8004 49.5381 80.1933 49.85 80.1933 50.55V53.6167H79.6161V50.7071C79.6161 50.2976 79.4803 50.0143 79.0099 50.0143C78.5394 50.0143 78.1829 50.3928 78.1829 50.869V53.6143H77.6082V49.6405H78.1829V50.0786L78.1878 50.0809Z" fill="#ED1C24"/>
<path d="M83.6683 52.2928C83.6683 53.0738 83.2973 53.7214 82.4485 53.7214C81.5997 53.7214 81.1074 53.2238 81.1074 51.6238C81.1074 50.6262 81.3354 49.5405 82.4024 49.5405C83.5471 49.5405 83.6683 50.7167 83.6683 51.7667H81.7064C81.7064 52.6738 81.7598 53.2476 82.434 53.2476C82.9869 53.2476 83.0936 52.75 83.0936 52.2952H83.6707L83.6683 52.2928ZM83.0693 51.2881C83.0693 50.6857 82.9869 50.0167 82.4097 50.0167C81.7719 50.0167 81.704 50.7619 81.704 51.2881H83.0669H83.0693Z" fill="#ED1C24"/>
<path d="M85.1526 50.2905H85.1599C85.3709 49.8214 85.6595 49.5905 86.1687 49.5905C86.2221 49.5905 86.2657 49.5976 86.3264 49.6048V50.1548C86.2439 50.1405 86.159 50.1333 86.0839 50.1333C85.4921 50.1333 85.1526 50.5643 85.1526 51.2048V53.6167H84.5779V49.6429H85.1526V50.2905Z" fill="#ED1C24"/>
</svg>
