<svg width="147" height="30" viewBox="0 0 147 30" fill="none" xmlns="http://www.w3.org/2000/svg">
<path d="M122.171 6.67554L130.318 22.5893H125.824L122.558 16.1937H116.242L112.966 22.5893H108.474L116.625 6.67554H122.171ZM120.862 12.886L119.397 10.0141L117.932 12.886H120.862Z" fill="#636466"/>
<path d="M59.1348 6.65808H72.7105V9.96421H63.6305V12.867H72.6171V16.1747H63.6305V19.2673H72.8971V22.575H59.1348V6.65808Z" fill="#636466"/>
<path d="M43.0168 6.62512H47.511V19.2659H56.829V22.5736H43.0168V6.62512Z" fill="#636466"/>
<path d="M140.442 6.67479C140.442 6.67479 146.794 6.46519 146.794 11.4331C146.794 15.6006 143.031 16.193 143.031 16.193L146.921 22.6004H142.425L138.535 16.193H136.107V22.5885H131.612V6.67479H140.441H140.442ZM136.107 12.8853H140.147C140.147 12.8853 142.287 12.9588 142.287 11.4331C142.287 9.90737 140.147 9.98251 140.147 9.98251H136.107V12.8853Z" fill="#636466"/>
<path d="M100.813 9.96421C98.6218 9.96421 97.2416 11.3215 97.2416 12.8693H109.086C109.086 17.6482 107.845 22.5734 100.999 22.5734H92.7317V19.2657H100.999C102.959 19.2657 104.593 17.9385 104.593 16.1747H92.7317C92.7317 11.3689 94.2582 6.65808 100.813 6.65808H106.211V9.96421H100.813Z" fill="#636466"/>
<path d="M83.3213 9.96421C81.1304 9.96421 79.7518 11.3215 79.7518 12.8693H91.5945C91.5945 17.6482 90.3535 22.5734 83.5079 22.5734H75.2402V19.2657H83.5079C85.4671 19.2657 87.1051 17.9385 87.1051 16.1747H75.241C75.241 11.3689 76.7691 6.65808 83.3221 6.65808H88.7202V9.96421H83.3221H83.3213Z" fill="#636466"/>
<path d="M3.31226 25.8354H19.7314L28.0378 6.62823H29.2148V29.2143H3.31226V25.8354Z" fill="#72BF44"/>
<path d="M25.8993 3.31483H9.47942L1.17296 22.5861H0V0H25.8993V3.31483Z" fill="#72BF44"/>
</svg>
