<svg width="21" height="27" viewBox="0 0 21 27" fill="none" xmlns="http://www.w3.org/2000/svg">
<path d="M13.139 9.69948C12.3578 10.2214 11.4395 10.5 10.5 10.5C9.24022 10.5 8.03204 9.99955 7.14124 9.10876C6.25044 8.21796 5.75 7.00978 5.75 5.75C5.75 4.81054 6.02858 3.89218 6.55052 3.11104C7.07246 2.32991 7.8143 1.72109 8.68225 1.36157C9.5502 1.00206 10.5053 0.907993 11.4267 1.09127C12.3481 1.27455 13.1945 1.72695 13.8588 2.39124C14.5231 3.05554 14.9754 3.90191 15.1587 4.82332C15.342 5.74473 15.2479 6.6998 14.8884 7.56775C14.5289 8.4357 13.9201 9.17754 13.139 9.69948Z" fill="#222222" stroke="#222222"/>
<path d="M20.2099 25.9612C20.0229 26.1452 19.7677 26.25 19.5 26.25H1.5C1.23226 26.25 0.977051 26.1452 0.790099 25.9612C0.603413 25.7774 0.5 25.5299 0.5 25.2734C0.5 22.6673 1.55162 20.1664 3.42614 18.3212C5.30092 16.4757 7.84532 15.4375 10.5 15.4375C13.1547 15.4375 15.6991 16.4757 17.5739 18.3212C19.4484 20.1664 20.5 22.6673 20.5 25.2734C20.5 25.5299 20.3966 25.7774 20.2099 25.9612Z" fill="#222222" stroke="#222222"/>
</svg>
