<svg width="279" height="46" viewBox="0 0 279 46" fill="none" xmlns="http://www.w3.org/2000/svg">
<g clip-path="url(#clip0_25_362)">
<path d="M68.3992 32.2992V12.1657C68.3967 12.0945 68.4094 12.0236 68.4365 11.9576C68.4636 11.8917 68.5045 11.8322 68.5565 11.7831C68.6061 11.73 68.6667 11.6881 68.7341 11.6603C68.8015 11.6325 68.8742 11.6194 68.9472 11.6221H70.4692C70.5413 11.6202 70.613 11.6335 70.6795 11.6613C70.746 11.6891 70.8057 11.7306 70.8548 11.7831C70.9077 11.8318 70.9495 11.8911 70.9775 11.957C71.0055 12.023 71.019 12.0941 71.0171 12.1657V21.412L79.3171 11.8888C79.3936 11.8143 79.4769 11.7469 79.5657 11.6875C79.669 11.6408 79.7822 11.62 79.8955 11.6271H81.9654C82.2343 11.6271 82.3713 11.7328 82.3713 11.9492C82.3729 12.0005 82.3639 12.0516 82.3446 12.0992C82.3254 12.1468 82.2965 12.19 82.2597 12.2261L73.5639 21.9556L82.2445 32.2438C82.3351 32.3371 82.386 32.4615 82.3865 32.5911C82.3865 32.7773 82.2597 32.873 82.006 32.873H79.7687C79.6486 32.8751 79.5295 32.851 79.4199 32.8023C79.3103 32.7535 79.2128 32.6814 79.1345 32.5911L71.0273 22.781V32.2992C71.0301 32.4444 70.9796 32.5857 70.8852 32.6968C70.8411 32.7535 70.7841 32.7991 70.7188 32.8297C70.6536 32.8603 70.5819 32.8751 70.5098 32.873H68.9319C68.86 32.8736 68.7889 32.8581 68.7239 32.8276C68.6589 32.797 68.6017 32.7523 68.5565 32.6968C68.4607 32.5862 68.4084 32.445 68.4094 32.2992" fill="#222222"/>
<path d="M85.8871 32.2992V11.919C85.8852 11.7785 85.9358 11.6422 86.0292 11.5365C86.0761 11.4827 86.1348 11.4403 86.2007 11.4124C86.2666 11.3845 86.3381 11.3718 86.4097 11.3754H87.9013C87.9709 11.3737 88.0402 11.3862 88.1048 11.4121C88.1694 11.4381 88.2279 11.477 88.2767 11.5264C88.3752 11.6334 88.428 11.7742 88.4238 11.919V32.2992C88.4298 32.4519 88.3772 32.6011 88.2767 32.7169C88.2316 32.7725 88.1743 32.8172 88.1093 32.8477C88.0443 32.8782 87.9732 32.8937 87.9013 32.8931H86.4097C86.3385 32.8937 86.2681 32.8781 86.2039 32.8476C86.1397 32.8171 86.0834 32.7724 86.0393 32.7169C85.94 32.6081 85.8857 32.4661 85.8871 32.3193" fill="#222222"/>
<path d="M92.9087 14.0532V11.7781C92.9088 11.7037 92.9241 11.63 92.9537 11.5617C92.9834 11.4933 93.0268 11.4317 93.0812 11.3805C93.1328 11.3247 93.1955 11.2802 93.2654 11.2499C93.3353 11.2195 93.4108 11.204 93.4871 11.2043H94.9482C95.0231 11.2052 95.097 11.2208 95.1658 11.2502C95.2346 11.2795 95.2968 11.3221 95.349 11.3754C95.4074 11.4248 95.4537 11.4868 95.4844 11.5565C95.5152 11.6263 95.5296 11.702 95.5266 11.7781V14.0532C95.5266 14.1272 95.5118 14.2004 95.483 14.2687C95.4543 14.3369 95.4122 14.3988 95.3591 14.4508C95.307 14.5072 95.2434 14.5521 95.1726 14.5824C95.1018 14.6128 95.0253 14.628 94.9482 14.627H93.4871C93.3366 14.6265 93.1924 14.5667 93.0863 14.4609C93.0299 14.4088 92.985 14.3456 92.9545 14.2755C92.9239 14.2053 92.9083 14.1296 92.9087 14.0532ZM92.9391 32.2992V17.7275C92.9391 17.6536 92.9539 17.5803 92.9827 17.5121C93.0114 17.4438 93.0535 17.3819 93.1066 17.3299C93.1587 17.2735 93.2222 17.2286 93.2931 17.1983C93.3639 17.1679 93.4404 17.1527 93.5175 17.1537H94.8721C94.9467 17.1537 95.0205 17.1684 95.0893 17.1969C95.1581 17.2254 95.2205 17.2672 95.2729 17.3198C95.3319 17.3698 95.3787 17.4325 95.4094 17.5032C95.4402 17.5739 95.4543 17.6506 95.4505 17.7275V32.3243C95.451 32.3993 95.4354 32.4735 95.4048 32.5421C95.3742 32.6107 95.3292 32.672 95.2729 32.722C95.2217 32.7769 95.1598 32.8208 95.0908 32.8511C95.0219 32.8814 94.9475 32.8974 94.8721 32.8981H93.4972C93.4218 32.8974 93.3474 32.8814 93.2785 32.8511C93.2095 32.8208 93.1476 32.7769 93.0964 32.722C93.0401 32.672 92.9951 32.6107 92.9645 32.5421C92.9339 32.4735 92.9183 32.3993 92.9188 32.3243" fill="#222222"/>
<path d="M99.7222 32.2992V17.7275C99.721 17.6538 99.7347 17.5806 99.7626 17.5123C99.7905 17.444 99.832 17.382 99.8846 17.3299C99.9322 17.2747 99.9914 17.2303 100.058 17.1999C100.124 17.1695 100.197 17.1537 100.27 17.1537H101.716C101.788 17.1532 101.859 17.1677 101.924 17.1963C101.99 17.225 102.049 17.2671 102.097 17.3198C102.149 17.374 102.19 17.438 102.217 17.508C102.244 17.578 102.256 17.6526 102.254 17.7275V18.256C102.862 17.8767 103.508 17.5612 104.182 17.3148C104.91 17.0458 105.682 16.9111 106.46 16.9172C107.016 16.9067 107.57 16.9989 108.093 17.189C108.579 17.3833 109.009 17.6926 109.346 18.0899C110.124 17.7171 110.939 17.4237 111.777 17.2141C112.547 17.0229 113.337 16.9233 114.131 16.9172C114.752 16.9124 115.371 16.9989 115.967 17.1739C116.525 17.3414 117.033 17.6402 117.449 18.0446C117.908 18.5061 118.255 19.0657 118.463 19.6805C118.722 20.4939 118.842 21.3445 118.818 22.1972V32.2992C118.819 32.3736 118.803 32.4473 118.774 32.5157C118.744 32.5841 118.701 32.6458 118.646 32.6968C118.595 32.7515 118.533 32.7953 118.464 32.8256C118.395 32.8558 118.32 32.872 118.245 32.873H116.865C116.714 32.8656 116.571 32.8028 116.464 32.6968C116.357 32.5907 116.294 32.449 116.287 32.2992V22.177C116.3 21.6762 116.231 21.1765 116.084 20.6972C115.974 20.3454 115.787 20.0221 115.536 19.751C115.306 19.5132 115.018 19.3397 114.699 19.2476C114.369 19.1539 114.027 19.1065 113.684 19.1067C113.125 19.1115 112.569 19.1893 112.03 19.3382C111.442 19.4892 110.874 19.6704 110.321 19.8718C110.5 20.603 110.585 21.354 110.574 22.1066V32.2992C110.574 32.444 110.524 32.5844 110.432 32.6968C110.387 32.7536 110.329 32.7991 110.263 32.8297C110.197 32.8603 110.125 32.8751 110.052 32.873H108.53C108.46 32.8744 108.392 32.8591 108.33 32.8284C108.268 32.7977 108.215 32.7526 108.174 32.6968C108.084 32.5839 108.035 32.4434 108.038 32.2992V22.1468C108.049 21.6321 108.006 21.1177 107.911 20.6117C107.855 20.2779 107.714 19.9641 107.5 19.7006C107.314 19.4849 107.066 19.3304 106.789 19.2577C106.471 19.179 106.144 19.1417 105.815 19.147C105.241 19.1592 104.673 19.2699 104.136 19.4741C103.509 19.7031 102.896 19.967 102.3 20.2644V32.3445C102.302 32.4897 102.252 32.631 102.157 32.7421C102.115 32.7983 102.06 32.8437 101.996 32.8743C101.933 32.905 101.863 32.9201 101.792 32.9183H100.27C100.2 32.9201 100.131 32.905 100.068 32.8743C100.005 32.8436 99.9511 32.7982 99.91 32.7421C99.8208 32.6288 99.7742 32.4882 99.7781 32.3445" fill="#222222"/>
<path d="M122.136 28.4486V28.0963C122.123 27.4078 122.247 26.7235 122.502 26.0829C122.747 25.4941 123.157 24.9875 123.684 24.6233C124.327 24.1886 125.055 23.8905 125.82 23.7475C126.892 23.5386 127.984 23.4424 129.077 23.4606H131.197V22.3079C131.197 21.0932 130.967 20.2543 130.507 19.7912C130.047 19.3282 129.249 19.0882 128.113 19.0715C127.174 19.0715 126.347 19.0715 125.632 19.157C124.917 19.2426 124.277 19.2728 123.704 19.3382H123.567C123.442 19.3386 123.318 19.3092 123.207 19.2527C123.1 19.1973 123.05 19.0715 123.05 18.8752V17.8685C123.05 17.5614 123.247 17.3651 123.653 17.3249C124.242 17.2343 124.891 17.1437 125.591 17.0682C126.434 16.9803 127.281 16.94 128.128 16.9474C130.124 16.9474 131.559 17.4255 132.435 18.3819C133.308 19.3332 133.749 20.6469 133.749 22.323V32.2992C133.748 32.3739 133.732 32.4477 133.702 32.516C133.671 32.5843 133.627 32.6458 133.572 32.6968C133.521 32.7513 133.46 32.7951 133.392 32.8254C133.324 32.8557 133.251 32.8719 133.176 32.873H131.847C131.772 32.8744 131.697 32.8594 131.629 32.829C131.561 32.7985 131.5 32.7534 131.451 32.6968C131.344 32.5915 131.284 32.4485 131.284 32.2992V31.67C130.602 32.0695 129.886 32.4065 129.143 32.6767C128.401 32.9436 127.618 33.0783 126.829 33.0743C126.233 33.0785 125.638 33.0092 125.059 32.8679C124.511 32.7328 124.003 32.4745 123.572 32.1129C123.121 31.7209 122.765 31.2321 122.532 30.6834C122.249 29.9764 122.116 29.219 122.141 28.4587M124.678 28.4285C124.678 29.4352 124.906 30.1499 125.368 30.5022C125.948 30.8773 126.636 31.0541 127.326 31.0056C127.983 31.0089 128.637 30.9121 129.264 30.7187C129.944 30.5005 130.599 30.212 131.218 29.858V25.2625H129.092C128.366 25.2522 127.642 25.3061 126.926 25.4236C126.443 25.5 125.981 25.6711 125.566 25.9269C125.249 26.1332 125.007 26.4348 124.876 26.7876C124.734 27.2056 124.667 27.6452 124.678 28.0862V28.4285Z" fill="#222222"/>
<path d="M135.728 18.4372V17.6571C135.728 17.3098 135.911 17.1537 136.276 17.1537H139.076V14.3501C139.071 14.2792 139.08 14.208 139.102 14.1405C139.125 14.073 139.161 14.0107 139.208 13.9573C139.256 13.9038 139.313 13.8603 139.378 13.8292C139.442 13.7981 139.512 13.7802 139.584 13.7763L141.075 13.5498H141.162C141.275 13.5522 141.384 13.5972 141.466 13.6757C141.511 13.7224 141.546 13.7777 141.569 13.8383C141.591 13.8989 141.601 13.9635 141.598 14.028V17.1537H144.708C144.858 17.1543 145.002 17.214 145.109 17.3198C145.165 17.3718 145.209 17.435 145.239 17.5053C145.269 17.5756 145.283 17.6513 145.281 17.7275V18.6889C145.281 18.7629 145.266 18.8361 145.238 18.9044C145.209 18.9727 145.167 19.0346 145.114 19.0866C145.062 19.1423 144.999 19.1868 144.929 19.2171C144.86 19.2475 144.784 19.263 144.708 19.2627H141.598V29.264C141.598 30.0492 141.709 30.5475 141.943 30.774C142.297 31.0225 142.729 31.1351 143.16 31.0912H144.764C145.164 31.0912 145.367 31.222 145.367 31.4888V32.4653C145.367 32.7337 145.198 32.9015 144.86 32.9686C144.566 33.0038 144.251 33.0391 143.906 33.0642C143.561 33.0894 143.257 33.1095 142.988 33.1095C142.402 33.1164 141.818 33.0642 141.243 32.9535C140.786 32.8628 140.364 32.6465 140.025 32.3294C139.689 32.0034 139.441 31.5982 139.305 31.1516C139.125 30.532 139.042 29.8884 139.061 29.2439V19.2627L136.261 18.9557C135.895 18.9154 135.713 18.7443 135.713 18.4523" fill="#222222"/>
<path d="M148.345 32.2992V12.3771C148.341 12.2836 148.355 12.1901 148.388 12.1023C148.421 12.0146 148.471 11.9343 148.536 11.8665C148.601 11.7987 148.679 11.7447 148.766 11.7079C148.853 11.6711 148.946 11.6521 149.04 11.6523C149.659 11.5768 150.405 11.5214 151.273 11.4862C152.14 11.4509 152.998 11.4308 153.845 11.4308C154.929 11.4228 156.011 11.5325 157.072 11.758C157.977 11.95 158.838 12.3103 159.608 12.82C160.323 13.3117 160.901 13.9749 161.288 14.7478C161.714 15.6525 161.921 16.6437 161.891 17.642V18.0195C161.925 19.0586 161.718 20.0916 161.288 21.0395C160.902 21.8284 160.325 22.5099 159.608 23.0227C158.844 23.5487 157.982 23.9183 157.072 24.1099C156.012 24.3395 154.93 24.451 153.845 24.4421C153.383 24.4421 152.886 24.4421 152.348 24.3968C151.811 24.3515 151.334 24.3364 150.963 24.3011V32.2992C150.966 32.4444 150.916 32.5857 150.821 32.6968C150.775 32.7537 150.716 32.7992 150.649 32.8298C150.582 32.8604 150.509 32.8751 150.436 32.873H148.873C148.801 32.8743 148.73 32.8592 148.664 32.8286C148.599 32.798 148.542 32.7529 148.498 32.6968C148.398 32.588 148.344 32.446 148.345 32.2992ZM150.963 22.1468C151.131 22.1468 151.344 22.1468 151.597 22.177L152.374 22.2173L153.16 22.2475C153.419 22.2475 153.667 22.2475 153.845 22.2475C155.817 22.2475 157.217 21.912 158.046 21.2408C158.874 20.5697 159.294 19.4909 159.304 18.0044V17.6168C159.304 16.1672 158.864 15.1387 157.985 14.5314C157.105 13.924 155.734 13.622 153.87 13.6253C153.429 13.6253 152.927 13.6253 152.348 13.6505C151.77 13.6757 151.334 13.7008 150.978 13.7361L150.963 22.1468Z" fill="#222222"/>
<path d="M165.133 32.2992V17.7275C165.133 17.5792 165.192 17.4366 165.296 17.3299C165.343 17.2747 165.402 17.2303 165.469 17.1999C165.535 17.1695 165.608 17.1537 165.681 17.1537H167.031C167.104 17.1524 167.178 17.167 167.245 17.1965C167.312 17.2261 167.373 17.2699 167.421 17.3249C167.473 17.379 167.514 17.443 167.541 17.513C167.568 17.583 167.581 17.6577 167.579 17.7326V18.3416C168.222 17.8898 168.925 17.529 169.669 17.2695C170.306 17.0562 170.974 16.9458 171.647 16.9423C172.048 16.9423 172.251 17.1185 172.251 17.4457V18.6336C172.251 18.9658 172.048 19.1369 171.647 19.1369C170.988 19.133 170.332 19.2228 169.699 19.4037C168.986 19.6271 168.304 19.94 167.67 20.3348V32.2992C167.67 32.3731 167.655 32.4464 167.626 32.5146C167.598 32.5829 167.556 32.6448 167.502 32.6968C167.454 32.7534 167.393 32.7985 167.325 32.829C167.256 32.8594 167.182 32.8744 167.107 32.873H165.686C165.613 32.873 165.54 32.8572 165.474 32.8268C165.407 32.7964 165.348 32.752 165.301 32.6968C165.197 32.5901 165.139 32.4475 165.138 32.2992" fill="#222222"/>
<path d="M173.743 26.1031V23.9236C173.731 22.9537 173.87 21.9878 174.154 21.0596C174.396 20.2518 174.807 19.5039 175.361 18.8651C175.907 18.2465 176.589 17.7608 177.355 17.4457C178.24 17.0952 179.187 16.9241 180.14 16.9423C181.098 16.9252 182.05 17.0962 182.941 17.4457C183.719 17.7559 184.414 18.2419 184.97 18.8651C185.528 19.5037 185.944 20.2513 186.193 21.0596C186.475 21.988 186.612 22.954 186.599 23.9236V26.1031C186.612 27.0711 186.476 28.0354 186.193 28.962C185.947 29.7708 185.534 30.5199 184.98 31.1616C184.425 31.7834 183.73 32.2662 182.951 32.571C182.06 32.9204 181.108 33.0915 180.15 33.0743C179.197 33.0924 178.25 32.9213 177.365 32.571C176.599 32.2613 175.917 31.7787 175.371 31.1616C174.816 30.5197 174.405 29.7683 174.164 28.957C173.88 28.0322 173.742 27.0696 173.753 26.1031M176.29 26.1031C176.223 27.3315 176.542 28.5501 177.203 29.5912C177.805 30.4402 178.789 30.8663 180.156 30.8697C181.495 30.8697 182.484 30.4469 183.113 29.5962C183.795 28.5614 184.126 27.3375 184.057 26.1031V23.9186C184.124 22.688 183.799 21.4678 183.128 20.4305C182.51 19.5748 181.515 19.152 180.156 19.152C178.796 19.152 177.832 19.5698 177.213 20.4204C176.537 21.4685 176.214 22.702 176.29 23.9438V26.1031Z" fill="#222222"/>
<path d="M188.151 18.4372V17.6571C188.149 17.5884 188.162 17.5201 188.19 17.4573C188.218 17.3945 188.26 17.3389 188.313 17.2947C188.419 17.2007 188.557 17.1504 188.699 17.1537H191.5V15.1001C191.483 14.4535 191.575 13.8087 191.773 13.1925C191.929 12.7264 192.2 12.3062 192.56 11.9694C192.922 11.6528 193.358 11.4297 193.828 11.3201C194.383 11.189 194.952 11.1265 195.523 11.1338C195.843 11.1295 196.164 11.1497 196.482 11.1942C196.735 11.2395 196.953 11.2748 197.141 11.315C197.506 11.4056 197.689 11.5566 197.689 11.7731V12.6992C197.689 12.9861 197.517 13.127 197.182 13.127H195.802C195.556 13.0998 195.307 13.1208 195.069 13.1891C194.832 13.2573 194.61 13.3713 194.417 13.5247C194.112 13.9891 193.979 14.5443 194.041 15.0951V17.1638H197.085C197.229 17.1596 197.369 17.2101 197.476 17.3047C197.529 17.349 197.571 17.4046 197.599 17.4674C197.627 17.5302 197.641 17.5985 197.638 17.6671V18.7745C197.638 19.0966 197.456 19.2778 197.085 19.2778H194.041V32.3143C194.043 32.388 194.029 32.4611 194.001 32.5295C193.973 32.5978 193.932 32.6598 193.879 32.7119C193.831 32.7671 193.772 32.8115 193.706 32.8419C193.639 32.8723 193.567 32.8881 193.493 32.8881H192.078C191.927 32.8807 191.784 32.8179 191.677 32.7119C191.57 32.6058 191.507 32.4641 191.5 32.3143V19.2627L188.699 18.9557C188.334 18.9154 188.151 18.7443 188.151 18.4523" fill="#222222"/>
<path d="M198.633 32.3243V29.9184C198.633 29.8522 198.647 29.7869 198.675 29.7269C198.703 29.6669 198.744 29.6137 198.795 29.5711C198.846 29.5227 198.907 29.485 198.973 29.4599C199.039 29.4349 199.11 29.423 199.181 29.4251H200.561C200.702 29.4213 200.839 29.4698 200.946 29.561C200.999 29.6042 201.041 29.6589 201.069 29.7209C201.097 29.7829 201.111 29.8504 201.108 29.9184V32.3243C201.109 32.3918 201.096 32.4586 201.069 32.5209C201.043 32.5831 201.005 32.6395 200.956 32.6867C200.906 32.7396 200.844 32.781 200.776 32.8079C200.707 32.8349 200.634 32.8468 200.561 32.8428H199.181C199.109 32.8453 199.037 32.8327 198.971 32.8058C198.904 32.7789 198.845 32.7383 198.795 32.6867C198.745 32.6404 198.704 32.5844 198.676 32.5221C198.648 32.4598 198.634 32.3925 198.633 32.3243Z" fill="#222222"/>
<path d="M204.386 26.1031V23.9236C204.374 22.9537 204.513 21.9878 204.797 21.0596C205.041 20.2526 205.452 19.505 206.004 18.8651C206.553 18.2452 207.239 17.7595 208.008 17.4457C208.894 17.0952 209.841 16.9241 210.794 16.9423C211.753 16.9257 212.706 17.0967 213.599 17.4457C214.378 17.7553 215.073 18.2414 215.629 18.8651C216.184 19.5036 216.597 20.2515 216.841 21.0596C217.125 21.9878 217.264 22.9537 217.252 23.9236V26.1031C217.264 27.0714 217.126 28.0357 216.841 28.962C216.594 29.7725 216.178 30.5221 215.618 31.1616C215.064 31.7839 214.368 32.2669 213.589 32.571C212.696 32.9199 211.743 33.0909 210.783 33.0743C209.831 33.0924 208.884 32.9213 207.998 32.571C207.232 32.2613 206.55 31.7787 206.004 31.1616C205.451 30.5187 205.039 29.7676 204.797 28.957C204.513 28.0322 204.375 27.0696 204.386 26.1031ZM206.923 26.1031C206.855 27.331 207.172 28.5495 207.831 29.5912C208.433 30.4402 209.417 30.8663 210.783 30.8697C212.15 30.873 213.136 30.4485 213.741 29.5962C214.427 28.5629 214.759 27.3383 214.69 26.1031V23.9186C214.755 22.6875 214.429 21.4672 213.756 20.4305C213.138 19.5748 212.143 19.152 210.783 19.152C209.424 19.152 208.46 19.5698 207.841 20.4204C207.167 21.4691 206.846 22.7025 206.923 23.9438V26.1031Z" fill="#222222"/>
<path d="M220.611 32.2992V17.7275C220.611 17.5792 220.669 17.4366 220.773 17.3299C220.821 17.2747 220.88 17.2303 220.946 17.1999C221.013 17.1695 221.085 17.1537 221.158 17.1537H222.609C222.682 17.1538 222.753 17.1691 222.818 17.1986C222.884 17.2281 222.942 17.2712 222.99 17.3249C223.092 17.4363 223.146 17.5823 223.142 17.7326V18.2711C223.859 17.8642 224.613 17.5271 225.395 17.2645C226.151 17.0341 226.938 16.922 227.728 16.9323C229.474 16.9323 230.747 17.4356 231.544 18.4775C232.34 19.5194 232.741 20.9942 232.741 22.8817V32.2992C232.741 32.3736 232.726 32.4473 232.696 32.5157C232.667 32.5841 232.623 32.6458 232.569 32.6968C232.52 32.7527 232.46 32.7974 232.393 32.8279C232.325 32.8583 232.252 32.8737 232.178 32.873H230.783C230.707 32.872 230.633 32.8558 230.564 32.8256C230.495 32.7953 230.433 32.7515 230.382 32.6968C230.327 32.646 230.282 32.5846 230.252 32.5162C230.221 32.4478 230.205 32.3739 230.204 32.2992V22.9119C230.215 22.3031 230.156 21.6951 230.027 21.0999C229.933 20.6758 229.734 20.2814 229.448 19.9523C229.172 19.6604 228.822 19.4482 228.434 19.3382C227.977 19.2062 227.504 19.1434 227.028 19.152C226.38 19.1545 225.736 19.2599 225.121 19.4641C224.437 19.682 223.771 19.9495 223.127 20.2644V32.2992C223.127 32.3731 223.112 32.4464 223.083 32.5146C223.055 32.5829 223.013 32.6448 222.96 32.6968C222.911 32.7533 222.85 32.7985 222.782 32.8289C222.713 32.8594 222.639 32.8744 222.564 32.873H221.143C221.07 32.873 220.998 32.8572 220.931 32.8268C220.864 32.7964 220.805 32.752 220.758 32.6968C220.654 32.5901 220.596 32.4475 220.595 32.2992" fill="#222222"/>
<path d="M236.927 32.2992V11.919C236.922 11.7781 236.973 11.6409 237.069 11.5365C237.115 11.4821 237.174 11.4393 237.24 11.4113C237.306 11.3833 237.377 11.3711 237.449 11.3754H238.956C239.026 11.3737 239.095 11.3862 239.159 11.4121C239.224 11.4381 239.283 11.477 239.331 11.5264C239.43 11.6334 239.483 11.7742 239.478 11.919V32.2992C239.479 32.445 239.427 32.5862 239.331 32.6968C239.287 32.7529 239.23 32.798 239.164 32.8286C239.099 32.8591 239.028 32.8743 238.956 32.873H237.469C237.397 32.8743 237.326 32.8591 237.261 32.8286C237.196 32.798 237.139 32.7529 237.094 32.6968C236.998 32.5862 236.946 32.445 236.947 32.2992" fill="#222222"/>
<path d="M243.968 14.0532V11.7781C243.969 11.6288 244.029 11.4858 244.136 11.3805C244.187 11.3247 244.25 11.2802 244.32 11.2499C244.39 11.2195 244.465 11.204 244.542 11.2043H246.008C246.159 11.2067 246.303 11.2682 246.409 11.3754C246.465 11.4266 246.51 11.4888 246.54 11.5582C246.571 11.6275 246.586 11.7024 246.586 11.7781V14.0532C246.581 14.2038 246.519 14.3468 246.411 14.4534C246.304 14.5599 246.16 14.622 246.008 14.627H244.537C244.463 14.6272 244.39 14.6126 244.322 14.584C244.254 14.5555 244.192 14.5136 244.141 14.4609C244.083 14.4096 244.038 14.3466 244.007 14.2762C243.977 14.2059 243.962 14.1298 243.963 14.0532M243.989 32.2992V17.7275C243.988 17.6531 244.004 17.5794 244.033 17.511C244.063 17.4426 244.106 17.3809 244.161 17.3299C244.212 17.2736 244.275 17.2288 244.345 17.1984C244.415 17.1681 244.491 17.1528 244.567 17.1537H245.947C246.097 17.1543 246.242 17.214 246.348 17.3198C246.405 17.3716 246.45 17.4346 246.48 17.5049C246.511 17.5751 246.526 17.651 246.525 17.7275V32.3243C246.525 32.3991 246.508 32.473 246.478 32.5413C246.447 32.6097 246.403 32.6712 246.348 32.722C246.296 32.7766 246.234 32.8204 246.166 32.8507C246.097 32.881 246.022 32.8971 245.947 32.8981H244.567C244.416 32.8908 244.273 32.828 244.166 32.7219C244.059 32.6159 243.996 32.4741 243.989 32.3243" fill="#222222"/>
<path d="M250.777 32.2992V17.7275C250.777 17.5792 250.835 17.4366 250.939 17.3299C250.987 17.2747 251.046 17.2303 251.113 17.1999C251.179 17.1695 251.252 17.1537 251.325 17.1537H252.776C252.848 17.1538 252.919 17.1691 252.985 17.1986C253.05 17.2281 253.109 17.2712 253.156 17.3249C253.258 17.4363 253.313 17.5823 253.308 17.7326V18.2711C254.025 17.8642 254.779 17.5271 255.561 17.2645C256.317 17.0341 257.104 16.922 257.895 16.9323C259.64 16.9323 260.913 17.4356 261.71 18.4775C262.506 19.5194 262.907 20.9942 262.907 22.8817V32.2992C262.908 32.3736 262.892 32.4473 262.863 32.5157C262.833 32.5841 262.789 32.6458 262.735 32.6968C262.687 32.7527 262.627 32.7974 262.559 32.8279C262.492 32.8583 262.418 32.8737 262.344 32.873H260.949C260.874 32.872 260.799 32.8558 260.73 32.8256C260.662 32.7953 260.6 32.7515 260.548 32.6968C260.493 32.646 260.449 32.5846 260.418 32.5162C260.387 32.4478 260.371 32.3739 260.371 32.2992V22.9119C260.383 22.3028 260.322 21.6945 260.188 21.0999C260.096 20.6762 259.899 20.2818 259.615 19.9523C259.339 19.6604 258.988 19.4482 258.6 19.3382C258.144 19.2062 257.67 19.1434 257.195 19.152C256.546 19.1545 255.902 19.2599 255.287 19.4641C254.604 19.682 253.937 19.9495 253.293 20.2644V32.2992C253.301 32.374 253.293 32.4496 253.27 32.5214C253.248 32.5932 253.211 32.6597 253.161 32.7169C253.113 32.7735 253.052 32.8186 252.983 32.8491C252.915 32.8795 252.841 32.8946 252.766 32.8931H251.345C251.272 32.8931 251.199 32.8774 251.133 32.8469C251.066 32.8165 251.007 32.7722 250.96 32.7169C250.856 32.6102 250.797 32.4677 250.797 32.3193" fill="#222222"/>
<path d="M266.296 26.2138V23.6569C266.296 21.5965 266.844 19.9674 267.94 18.7694C269.036 17.5715 270.621 16.9709 272.694 16.9675C273.636 16.9568 274.572 17.1277 275.449 17.4708C276.197 17.7625 276.868 18.2225 277.407 18.8147C277.947 19.4295 278.351 20.1496 278.594 20.9288C278.876 21.8194 279.013 22.7487 279 23.682V25.1669C279 25.5846 278.822 25.791 278.457 25.791H268.818V26.1987C268.818 27.8849 269.158 29.0828 269.832 29.7875C270.507 30.4922 271.502 30.8445 272.826 30.8445C273.668 30.8445 274.566 30.8193 275.515 30.7589C276.463 30.6985 277.27 30.6281 277.945 30.5375H278.082C278.192 30.5378 278.301 30.5674 278.396 30.623C278.448 30.6586 278.488 30.7075 278.513 30.7643C278.538 30.8211 278.547 30.8837 278.538 30.9452V31.9066C278.547 32.061 278.506 32.2142 278.422 32.3445C278.303 32.4746 278.141 32.557 277.965 32.576C277.143 32.727 276.326 32.8428 275.515 32.9283C274.703 33.0139 273.81 33.0491 272.826 33.0491C272.009 33.05 271.196 32.9382 270.411 32.7169C269.639 32.5075 268.925 32.1291 268.321 31.6096C267.681 31.0337 267.181 30.3212 266.859 29.5258C266.452 28.4698 266.261 27.3439 266.296 26.2138ZM268.833 23.8934H276.474V23.6569C276.474 22.0361 276.164 20.8835 275.535 20.1989C274.906 19.5144 273.967 19.1923 272.699 19.1923C272.169 19.1583 271.638 19.2383 271.143 19.4268C270.647 19.6153 270.198 19.9079 269.827 20.2845C269.151 21.0093 268.813 22.1401 268.813 23.677L268.833 23.8934Z" fill="#222222"/>
<path d="M50.2264 33.2756H21.9677C20.2647 33.32 18.629 33.9447 17.3356 35.0447C16.0421 36.1446 15.1697 37.6528 14.865 39.3157C14.7088 40.147 14.7377 41.0022 14.9498 41.8212C15.1619 42.6403 15.552 43.4034 16.0928 44.0571C16.6396 44.6843 17.3179 45.1854 18.0803 45.5253C18.8427 45.8653 19.6708 46.0359 20.5066 46.0252C22.2099 45.9817 23.846 45.3573 25.1397 44.2572C26.4334 43.1571 27.3055 41.6484 27.6093 39.9851C27.7633 39.12 27.7252 38.2319 27.4977 37.3829H43.7325C43.4361 37.9856 43.231 38.6284 43.1237 39.2905C42.9678 40.1215 42.9965 40.9762 43.2076 41.7951C43.4188 42.614 43.8074 43.3773 44.3464 44.0319C44.8946 44.6587 45.574 45.1595 46.3371 45.4994C47.1002 45.8392 47.9288 46.0101 48.7653 46C50.4683 45.9556 52.104 45.3309 53.3974 44.231C54.6909 43.131 55.5633 41.6229 55.868 39.9599C56.024 39.1324 55.9968 38.2811 55.7883 37.465C55.5798 36.6489 55.195 35.8875 54.6605 35.2336C54.1097 34.6067 53.4274 34.1067 52.6616 33.7685C51.8957 33.4303 51.0646 33.2621 50.2264 33.2756ZM23.5202 39.3157C23.3697 40.0206 22.9906 40.6571 22.4408 41.128C21.8911 41.5989 21.201 41.8781 20.4762 41.923C20.2419 41.9368 20.0076 41.8989 19.7899 41.8118C19.5723 41.7248 19.377 41.5908 19.218 41.4196C19.0671 41.2217 18.9613 40.9936 18.9079 40.7512C18.8545 40.5087 18.8547 40.2577 18.9085 40.0153C19.06 39.3113 19.4395 38.6759 19.9891 38.206C20.5388 37.7361 21.2283 37.4576 21.9525 37.4131C22.1868 37.3985 22.4214 37.4361 22.6391 37.5232C22.8568 37.6103 23.0521 37.7447 23.2107 37.9164C23.3624 38.113 23.4687 38.3401 23.5222 38.5819C23.5756 38.8237 23.575 39.0742 23.5202 39.3157ZM51.7941 39.3157C51.6436 40.0206 51.2645 40.6571 50.7147 41.128C50.165 41.5989 49.4749 41.8781 48.7501 41.923C48.5158 41.9375 48.2812 41.8999 48.0634 41.8128C47.8457 41.7257 47.6504 41.5914 47.4919 41.4196C47.3346 41.2182 47.2251 40.9841 47.1715 40.7349C47.118 40.4857 47.1217 40.2277 47.1824 39.9801C47.3339 39.2761 47.7134 38.6407 48.2631 38.1708C48.8127 37.7009 49.5023 37.4224 50.2264 37.3778C50.4606 37.364 50.695 37.4019 50.9126 37.489C51.1302 37.576 51.3256 37.71 51.4846 37.8812C51.6363 38.0777 51.7426 38.3049 51.7961 38.5467C51.8495 38.7885 51.8489 39.0389 51.7941 39.2804" fill="#39659B"/>
<path d="M33.0631 24.4823C34.8609 24.4535 36.5856 23.7715 37.9105 22.5655C39.2354 21.3596 40.0686 19.7135 40.2521 17.9389C40.3428 17.0807 40.2487 16.2131 39.9759 15.3937C39.7031 14.5742 39.2579 13.8216 38.6698 13.1858C38.0817 12.55 37.3641 12.0454 36.5646 11.7055C35.765 11.3657 34.9018 11.1982 34.0322 11.2144C32.227 11.2352 30.4935 11.9184 29.166 13.1323C27.8385 14.3461 27.0111 16.0046 26.8432 17.7879C26.7603 18.6432 26.8602 19.5061 27.1363 20.3205C27.4124 21.1348 27.8585 21.8823 28.4454 22.514C29.0324 23.1457 29.747 23.6476 30.5427 23.9867C31.3384 24.3259 32.1972 24.4948 33.0631 24.4823ZM28.4109 18.2158H38.6236C38.5875 18.4462 38.5332 18.6734 38.4612 18.8953H28.4109C28.3954 18.669 28.3954 18.442 28.4109 18.2158ZM30.562 14.0129H37.2791C37.3603 14.0884 37.4364 14.1639 37.5125 14.2444C37.6423 14.3858 37.7627 14.5354 37.8727 14.6924H29.8213C30.0417 14.4444 30.2845 14.217 30.5467 14.0129M38.2887 15.4122C38.3964 15.6364 38.4863 15.8687 38.5576 16.1068H28.9182C29.0294 15.873 29.1548 15.6461 29.2936 15.4273L38.2887 15.4122ZM38.6743 16.8165C38.6871 17.0428 38.6871 17.2697 38.6743 17.496H28.4616C28.4984 17.2662 28.5509 17.0392 28.6189 16.8165H38.6743ZM38.167 19.6151C38.0562 19.8501 37.9291 20.0771 37.7865 20.2946H28.8218C28.7209 20.0801 28.6378 19.8579 28.5732 19.6302L38.167 19.6151ZM37.2284 21.0194C37.0146 21.2649 36.7804 21.4922 36.5283 21.6989H29.8466C29.7654 21.6234 29.6843 21.5479 29.6082 21.4623C29.4784 21.3227 29.358 21.1747 29.248 21.0194H37.2284ZM30.8917 22.4186H35.3309C34.6209 22.7481 33.847 22.9199 33.0631 22.922C32.3095 22.9262 31.5655 22.7538 30.8917 22.4186ZM36.2441 13.2881H31.7187C32.4438 12.9555 33.2333 12.7837 34.0322 12.7848C34.799 12.7783 35.5567 12.9508 36.2441 13.2881Z" fill="#39659B"/>
<path d="M50.3786 11.5868H45.1733L45.0211 13.1723H50.2213L50.3786 11.5868Z" fill="#39659B"/>
<path d="M5.1799 11.5868L4.82477 15.689H15.1846L15.5397 11.5868H5.1799Z" fill="#39659B"/>
<path d="M23.0331 4.61057L23.5405 0H13.1908L12.8356 4.1022H19.0049L17.7568 18.2107H0.355136L0 22.3129H17.3915L17.1379 25.1065H9.34008L8.98494 29.1936H16.7675L16.5849 31.3227H55.2592L57.6284 4.59547L23.0331 4.61057ZM52.0021 27.2306H21.4147L23.1194 8.45607H53.7067L52.0021 27.2306Z" fill="#39659B"/>
</g>
<defs>
<clipPath id="clip0_25_362">
<rect width="279" height="46" fill="white"/>
</clipPath>
</defs>
</svg>
