<svg width="316" height="41" viewBox="0 0 316 41" fill="none" xmlns="http://www.w3.org/2000/svg">
<g clip-path="url(#clip0_1_1993)">
<path fill-rule="evenodd" clip-rule="evenodd" d="M35.072 0C39.9051 0 44.2914 1.89413 47.4998 4.93263L43.3979 8.91819C41.2453 6.86622 38.2805 5.60346 35.0314 5.60346C28.4114 5.60346 23.091 10.8123 23.091 17.205C23.091 23.6371 28.452 28.8065 35.0314 28.8065C38.2399 28.8065 41.1641 27.5833 43.3166 25.5707L47.4186 29.5958C44.2101 32.5948 39.8645 34.4495 35.072 34.4495C25.2841 34.4495 17.3239 26.7546 17.3239 17.205C17.3239 7.73436 25.2841 0 35.072 0Z" fill="#434142"/>
<path fill-rule="evenodd" clip-rule="evenodd" d="M18.4611 4.06445C8.63257 4.06445 0.712891 11.7988 0.712891 21.3089C0.712891 30.819 8.63257 38.5534 18.4611 38.5534C20.0044 38.5534 21.5071 38.3561 22.9692 38.0009C26.5026 39.9345 30.6046 41.0394 34.9503 41.0394C35.397 41.0394 35.8438 41.0394 36.2905 41V35.949C35.8438 35.9884 35.397 35.9884 34.9503 35.9884C32.9196 35.9884 30.9701 35.6727 29.1019 35.1203C29.4268 34.8835 29.7517 34.6467 30.0766 34.3705C27.9241 33.7786 25.934 32.8315 24.1876 31.5688C23.8221 31.7661 23.4972 31.9239 23.1317 32.0423C21.2634 30.6612 19.6795 28.9249 18.4611 26.9913L14.0342 29.5957C14.7246 30.7006 15.5369 31.7661 16.4304 32.7526C10.8257 31.8055 6.56127 27.0308 6.56127 21.3089C6.56127 14.9162 11.9223 9.70738 18.5017 9.70738C19.4358 7.73433 20.7355 5.99804 22.3194 4.49852C21.0198 4.2223 19.7607 4.06445 18.4611 4.06445Z" fill="#1595D3"/>
<path fill-rule="evenodd" clip-rule="evenodd" d="M29.2643 7.65552C27.5585 8.64204 26.137 10.0232 25.1217 11.6805C28.3302 13.772 30.4015 17.3235 30.4015 21.309C30.4015 23.2426 29.9141 25.0578 29.0612 26.6757C30.6858 27.6623 32.6352 28.2542 34.6659 28.2936C35.6407 26.1627 36.2092 23.7951 36.2092 21.309C36.1686 15.745 33.4881 10.8124 29.2643 7.65552Z" fill="#1595D3"/>
<path fill-rule="evenodd" clip-rule="evenodd" d="M242.405 28.3725L240.496 26.5178C238.872 27.82 236.882 28.5303 234.77 28.5303C229.815 28.5303 225.794 24.6237 225.794 19.8094C225.794 14.9952 229.815 11.0886 234.77 11.0886C236.76 11.0886 238.669 11.7199 240.212 12.8643C240.699 12.1145 241.065 11.2464 241.268 10.3783C239.359 9.11551 237.085 8.48413 234.77 8.48413C228.312 8.48413 223.073 13.5746 223.073 19.8489C223.073 26.1232 228.312 31.2137 234.77 31.2137C237.613 31.1348 240.293 30.1482 242.405 28.3725Z" fill="#434142"/>
<path fill-rule="evenodd" clip-rule="evenodd" d="M207.396 31.411C200.817 31.411 195.496 26.2416 195.496 19.8489C195.496 13.4563 200.817 8.28687 207.396 8.28687C213.976 8.28687 219.296 13.4563 219.296 19.8489C219.296 26.2416 213.935 31.411 207.396 31.411ZM207.396 26.9125C211.417 26.9125 214.666 23.7556 214.666 19.8489C214.666 15.9423 211.417 12.7854 207.396 12.7854C203.375 12.7854 200.126 15.9423 200.126 19.8489C200.126 23.7556 203.375 26.9125 207.396 26.9125Z" fill="#1595D3"/>
<path d="M91.7688 8.7998H96.9674V21.3089C96.9674 23.1636 97.2923 24.5448 97.9421 25.4129C98.5919 26.281 99.7291 26.7151 101.354 26.7151C102.897 26.7151 104.034 26.281 104.684 25.4129C105.334 24.5448 105.699 23.1636 105.699 21.3089V8.7998H110.898V22.1376C110.898 24.8604 110.086 27.0308 108.542 28.5698C106.999 30.1088 104.603 30.898 101.313 30.898C97.9827 30.898 95.5459 30.1482 94.0432 28.6092C92.4998 27.0703 91.7688 24.9394 91.7688 22.1771V8.7998ZM121.092 8.7998H126.372L134.657 30.2666H129.133L127.712 26.2416H119.711L118.33 30.2666H112.807L121.092 8.7998ZM120.848 22.5717H126.534L123.691 14.4033L120.848 22.5717ZM139.368 12.9827V30.2666H144.567V12.9827H151.227V8.7998H132.707V12.9827H139.368Z" fill="#1595D3"/>
<path d="M160.568 12.8247H153.867V8.64185H172.428V12.8247H165.767V30.1086H160.568V12.8247Z" fill="#1595D3"/>
<path d="M259.747 27.9779V30.385H245.573V8.95767H248.538V28.0173H259.747V27.9779ZM262.225 8.95767H265.189V30.385H262.225V8.95767ZM280.744 30.385L273.556 12.3513H273.475L273.556 13.18V30.385H270.591V8.95767H275.018L281.922 26.6362L288.827 8.95767H293.253V30.385H290.289V13.2195L290.37 12.3908H290.289L283.141 30.385H280.744ZM301.092 24.8605L299.061 30.385H295.853L304.179 8.91821H307.346L315.713 30.385H312.545L310.433 24.8605H301.092ZM301.945 22.4139H309.661L305.763 11.8383L301.945 22.4139Z" fill="#434142"/>
<path fill-rule="evenodd" clip-rule="evenodd" d="M76.5387 31.2531C69.9593 31.2531 64.6389 26.0837 64.6389 19.691C64.6389 13.2983 69.9593 8.12891 76.5387 8.12891C83.1182 8.12891 88.4386 13.2983 88.4386 19.691C88.4386 23.2425 86.814 26.3994 84.2147 28.4908C85.3519 28.8065 86.6109 29.0038 87.87 29.0038C88.1137 29.0038 88.3573 29.0038 88.601 28.9643V32.792C88.3573 32.792 88.1137 32.792 87.87 32.792C84.9458 32.792 82.184 32.0817 79.7472 30.7795C78.7319 31.0952 77.6759 31.2531 76.5387 31.2531ZM79.5848 26.1231C82.1028 25.0182 83.8086 22.5716 83.8086 19.691C83.8086 15.7843 80.5595 12.6275 76.5387 12.6275C72.518 12.6275 69.2689 15.7843 69.2689 19.691C69.2689 22.8873 71.462 25.6101 74.5081 26.4783C74.1019 25.9653 73.6958 25.4128 73.3303 24.8209L76.7012 22.8873C77.5135 24.1501 78.4476 25.2155 79.5848 26.1231Z" fill="#1595D3"/>
<path d="M175.108 30.0299V8.60254H186.399C188.714 8.60254 190.582 9.11553 191.882 10.181C193.222 11.207 193.872 12.7459 193.912 14.719C193.872 16.0607 193.547 17.1656 192.938 18.1126C192.288 19.0202 191.354 19.6911 190.095 20.0857V20.1252C191.069 20.4014 191.8 20.9144 192.369 21.6641C192.938 22.4139 193.222 23.6372 193.262 25.334C193.303 27.1098 193.344 28.2147 193.466 28.7277C193.587 29.2012 193.79 29.6747 194.115 30.0693H188.795C188.633 29.872 188.511 29.7142 188.429 29.5169C188.348 29.3196 188.145 27.7017 187.901 24.6237C187.82 23.8345 187.495 23.2031 186.927 22.8085C186.358 22.3744 185.505 22.1771 184.327 22.1771H180.307V30.0693H175.108V30.0299ZM180.307 12.7459V18.1916H185.099C186.155 18.1916 186.967 17.9943 187.577 17.5602C188.186 17.1261 188.47 16.4158 188.47 15.5082C188.47 14.6006 188.186 13.9298 187.658 13.4562C187.13 12.9827 186.196 12.7459 184.937 12.7459H180.307Z" fill="#1595D3"/>
</g>
<defs>
<clipPath id="clip0_1_1993">
<rect width="315" height="41" fill="white" transform="translate(0.712891)"/>
</clipPath>
</defs>
</svg>
