<svg width="179" height="49" viewBox="0 0 179 49" fill="none" xmlns="http://www.w3.org/2000/svg">
<g clip-path="url(#clip0_1_2253)">
<path d="M33.7235 0.641516H-0.00344849V7.81513H11.1419V31.9485H22.3599V7.81513H33.7308V0.641516M178.111 0.641516H144.376V7.81513H155.522V31.9485H166.74V7.81513H178.111V0.641516ZM61.7105 22.6387V10.839C61.7105 8.23371 59.528 8.23371 59.528 8.23371H45.9237C43.7412 8.23371 43.3193 10.4926 43.3193 10.4926V21.3396C43.3193 23.7717 45.5018 23.9449 45.5018 23.9449H70.2004V30.6278L75.2347 23.7717H100.013V20.82C100.013 20.82 84.0593 19.954 77.9265 18.8281C71.8009 17.7023 70.7897 13.0113 70.7897 13.0113V6.97797C70.7824 1.49311 76.828 0.590997 76.828 0.590997H138.469C142.929 2.14985 143.591 6.49443 143.591 6.49443V25.9368C142.754 30.6278 138.556 31.9268 138.556 31.9268H113.785C108.656 30.2742 108.409 24.5512 108.409 24.5512V10.0524H117.226C117.226 10.0524 117.139 19.5137 117.139 21.9458C117.139 24.3779 119.074 24.2913 119.074 24.2913H133.602C135.537 24.2913 135.37 22.2273 135.37 22.2273V10.6586C135.37 8.65951 133.515 8.65951 133.515 8.65951H108.234V1.63745L102.189 8.83993H80.7783V12.3113L99.9262 13.4371C106.983 14.1299 107.914 20.2066 107.914 20.2066C107.914 20.2066 107.914 20.0983 107.914 24.9625C107.914 32.7135 99.0095 31.9268 99.0095 31.9268H42.2862C34.6765 31.9268 34.8366 24.1398 34.8366 24.1398V7.38211C34.8366 0.518828 41.3041 0.504395 41.3041 0.504395H63.8348C68.6872 0.504395 70.1932 7.23056 70.1932 7.23056V22.6315H61.7105V22.6387Z" fill="#D1242B"/>
<path d="M12.4384 44.2313V46.8366H11.5072V40.0671C12.2056 40.0382 12.6349 40.0238 12.7804 40.0238C14.7592 40.0238 15.7486 40.6805 15.7486 41.994C15.7486 43.5168 14.8756 44.2746 13.1223 44.2746C13.0132 44.2746 12.7876 44.2674 12.4312 44.2313H12.4384ZM12.4384 40.9043V43.4013C12.8313 43.4302 13.0423 43.4518 13.0641 43.4518C14.2208 43.4518 14.7955 42.9972 14.7955 42.0951C14.7955 41.2651 14.1844 40.8538 12.9477 40.8538C12.824 40.8538 12.6494 40.8754 12.4384 40.9043Z" fill="#D1242B"/>
<path d="M15.9936 44.3476C15.9936 43.5898 16.2045 42.9691 16.6119 42.5C17.0266 42.0309 17.5723 41.8 18.2488 41.8C18.9254 41.8 19.5147 42.0237 19.9075 42.4784C20.3004 42.933 20.4968 43.5537 20.4968 44.3548C20.4968 45.1559 20.2931 45.7837 19.893 46.2456C19.4929 46.7075 18.94 46.9384 18.2488 46.9384C17.5577 46.9384 16.983 46.7075 16.5828 46.2384C16.1827 45.7765 15.9863 45.1486 15.9863 44.362L15.9936 44.3476ZM16.9248 44.3476C16.9248 45.5889 17.3686 46.2095 18.2561 46.2095C18.6708 46.2095 18.9909 46.0435 19.2237 45.7116C19.4565 45.3796 19.5729 44.9249 19.5729 44.3476C19.5729 43.1279 19.1291 42.5072 18.2488 42.5072C17.8414 42.5072 17.5213 42.6732 17.2813 42.998C17.0412 43.3228 16.9248 43.7702 16.9248 44.3403V44.3476Z" fill="#D1242B"/>
<path d="M26.0418 46.9304H25.809L24.3467 43.5601L22.8917 46.9304H22.6589L20.8766 41.8785H21.8223L22.8917 45.1262L24.2158 41.8785H24.4486L25.8163 45.1262L26.9657 41.8785H27.846L26.0491 46.9304H26.0418Z" fill="#D1242B"/>
<path d="M32.7283 44.4486H29.1344C29.1344 45.0259 29.2945 45.4734 29.6146 45.7837C29.8983 46.0508 30.262 46.1879 30.7058 46.1879C31.2151 46.1879 31.6297 46.0435 31.9717 45.7476L32.3427 46.3755C32.2045 46.5126 32.0008 46.6281 31.717 46.7291C31.3606 46.859 30.975 46.924 30.5312 46.924C29.9056 46.924 29.3745 46.7147 28.938 46.2961C28.4506 45.8342 28.2105 45.2064 28.2105 44.4197C28.2105 43.6331 28.4578 42.9475 28.9598 42.4567C29.4036 42.0165 29.9347 41.8 30.5458 41.8C31.2514 41.8 31.8116 41.9948 32.219 42.3918C32.6119 42.7743 32.801 43.2795 32.801 43.9073C32.801 44.1022 32.7792 44.2826 32.7355 44.4486H32.7283ZM30.5821 42.5361C30.1893 42.5361 29.8546 42.6588 29.5927 42.9186C29.3381 43.1568 29.1926 43.4527 29.1562 43.8135H31.9135C31.9135 43.4599 31.8043 43.164 31.5788 42.9258C31.3387 42.666 31.0041 42.5361 30.5749 42.5361H30.5821Z" fill="#D1242B"/>
<path d="M36.4377 42.7309C36.2485 42.601 36.0521 42.5288 35.8557 42.5288C35.5428 42.5288 35.2737 42.6731 35.0409 42.9618C34.8081 43.2505 34.6844 43.5969 34.6844 43.9938V46.8301H33.7968V41.8865H34.6844V42.6731C35.0118 42.0813 35.4846 41.7927 36.1176 41.7927C36.2776 41.7927 36.5104 41.8215 36.8087 41.8721L36.4377 42.7236V42.7309Z" fill="#D1242B"/>
<path d="M41.632 44.4486H38.0381C38.0381 45.0259 38.1982 45.4734 38.5183 45.7837C38.802 46.0508 39.1585 46.1879 39.6095 46.1879C40.1188 46.1879 40.5335 46.0435 40.8754 45.7476L41.2464 46.3755C41.1082 46.5126 40.9045 46.6281 40.6135 46.7291C40.2643 46.859 39.8714 46.924 39.4349 46.924C38.8093 46.924 38.2782 46.7147 37.8344 46.2961C37.347 45.8342 37.1069 45.2064 37.1069 44.4197C37.1069 43.6331 37.3543 42.9475 37.849 42.4567C38.3 42.0165 38.8311 41.8 39.4422 41.8C40.1552 41.8 40.7081 41.9948 41.1082 42.3918C41.501 42.7743 41.6975 43.2795 41.6975 43.9073C41.6975 44.1022 41.6756 44.2826 41.6247 44.4486H41.632ZM39.4859 42.5361C39.093 42.5361 38.7584 42.6588 38.4965 42.9186C38.2418 43.1568 38.1036 43.4527 38.0672 43.8135H40.8245C40.8245 43.4599 40.7153 43.164 40.4898 42.9258C40.2425 42.666 39.9078 42.5361 39.4859 42.5361Z" fill="#D1242B"/>
<path d="M45.7952 46.8295V46.4614C45.4896 46.7645 45.0386 46.9161 44.4566 46.9161C43.8382 46.9161 43.329 46.6924 42.9434 46.2521C42.5505 45.8119 42.3614 45.2201 42.3614 44.4768C42.3614 43.7334 42.5869 43.1056 43.0307 42.5787C43.4817 42.0591 44.0055 41.7993 44.6312 41.7993C45.1404 41.7993 45.5333 41.922 45.8025 42.1602V39.8652H46.69V46.8367H45.8025L45.7952 46.8295ZM45.7952 43.0334C45.5697 42.7014 45.2714 42.5354 44.8785 42.5354C44.3984 42.5354 44.0201 42.7086 43.7291 43.0623C43.4381 43.4087 43.2926 43.8561 43.2926 44.4046C43.2926 45.5954 43.8382 46.1944 44.9367 46.1944C45.075 46.1944 45.2423 46.1511 45.4387 46.0573C45.6351 45.9707 45.7588 45.8769 45.8025 45.7758V43.0334H45.7952Z" fill="#D1242B"/>
<path d="M51.5754 46.4831L51.2626 46.9305H50.8261V39.8652H51.7064V42.254C51.7937 42.1457 51.9465 42.0375 52.1793 41.9436C52.4121 41.8498 52.6376 41.7993 52.8631 41.7993C53.547 41.7993 54.0999 42.0302 54.5218 42.4993C54.9438 42.9684 55.162 43.5602 55.162 44.2747C55.162 45.0974 54.951 45.747 54.5218 46.2233C54.0999 46.6924 53.5179 46.9305 52.7976 46.9305C52.5648 46.9305 52.332 46.8872 52.0992 46.8006C51.8737 46.714 51.6991 46.6058 51.5827 46.4831H51.5754ZM51.6991 42.9251V45.783C51.6991 45.8336 51.8155 45.9129 52.0338 46.0212C52.252 46.1295 52.4193 46.1944 52.5357 46.1944C53.1396 46.1944 53.5688 46.0501 53.8307 45.7614C54.0926 45.4727 54.2163 44.9892 54.2163 44.318C54.2163 43.7551 54.0635 43.3149 53.7579 43.0045C53.4597 42.687 53.045 42.5282 52.5285 42.5282C52.4193 42.5282 52.2666 42.5787 52.0774 42.6653C51.881 42.7592 51.7573 42.8385 51.6991 42.9179V42.9251Z" fill="#D1242B"/>
<path d="M58.0327 47.6742C57.9235 47.9918 57.6762 48.2516 57.3052 48.4681C56.9414 48.6701 56.5267 48.7784 56.0757 48.7784V47.9918C56.4467 47.9918 56.7668 47.9052 57.0287 47.7392C57.2906 47.566 57.4216 47.3567 57.4216 47.1113C57.4216 46.8443 57.3706 46.5772 57.2761 46.3174C57.1815 46.0576 57.0505 45.7329 56.905 45.3432L55.5519 41.9079H56.454L57.9163 45.7256L59.233 41.9079H60.1351L58.0254 47.6886L58.0327 47.6742Z" fill="#D1242B"/>
<path d="M68.5015 40.5435L68.1159 41.3012C67.6503 40.962 67.192 40.7816 66.7337 40.7816C66.028 40.7816 65.4606 41.027 65.0459 41.525C64.6312 42.0229 64.4275 42.6869 64.4275 43.5096C64.4275 44.3323 64.6312 44.9241 65.0386 45.4004C65.446 45.8768 65.9989 46.1149 66.6973 46.1149C67.192 46.1149 67.5921 45.9706 67.905 45.6747V44.087H66.9592V43.3003H68.8362V46.2448C68.5888 46.4541 68.2469 46.6201 67.7959 46.75C67.3521 46.8727 66.9229 46.9449 66.5009 46.9449C65.5624 46.9449 64.8204 46.6273 64.2747 45.9922C63.7291 45.3571 63.4527 44.52 63.4527 43.4735C63.4527 42.4271 63.7509 41.5755 64.3475 40.926C64.944 40.2692 65.7516 39.9445 66.7701 39.9445C67.4757 39.9445 68.0578 40.1393 68.5015 40.529V40.5435Z" fill="#D1242B"/>
<path d="M72.865 42.7309C72.6686 42.601 72.4795 42.5288 72.283 42.5288C71.9702 42.5288 71.701 42.6731 71.461 42.9618C71.2282 43.2505 71.1118 43.5969 71.1118 43.9938V46.8301H70.2315V41.8865H71.1118V42.6731C71.4319 42.0813 71.912 41.7927 72.5522 41.7927C72.7123 41.7927 72.9378 41.8215 73.2361 41.8721L72.8723 42.7236L72.865 42.7309Z" fill="#D1242B"/>
<path d="M78.0594 44.4486H74.4655C74.4655 45.0259 74.6256 45.4734 74.9457 45.7837C75.2294 46.0508 75.5931 46.1879 76.0369 46.1879C76.5462 46.1879 76.9681 46.0435 77.3028 45.7476L77.6811 46.3755C77.5429 46.5126 77.3392 46.6281 77.0554 46.7291C76.699 46.859 76.3061 46.924 75.8696 46.924C75.244 46.924 74.7129 46.7147 74.2691 46.2961C73.7817 45.8342 73.5416 45.2064 73.5416 44.4197C73.5416 43.6331 73.789 42.9475 74.2909 42.4567C74.7347 42.0165 75.2731 41.8 75.8769 41.8C76.5898 41.8 77.15 41.9948 77.5501 42.3918C77.943 42.7743 78.1394 43.2795 78.1394 43.9073C78.1394 44.1022 78.1176 44.2826 78.0739 44.4486H78.0594ZM75.9133 42.5361C75.5204 42.5361 75.1858 42.6588 74.9166 42.9186C74.662 43.1568 74.5237 43.4527 74.4873 43.8135H77.2519C77.2519 43.4599 77.1427 43.164 76.9172 42.9258C76.6771 42.666 76.3425 42.5361 75.9205 42.5361H75.9133Z" fill="#D1242B"/>
<path d="M83.261 44.4486H79.6671C79.6671 45.0259 79.8272 45.4734 80.1473 45.7837C80.4237 46.0508 80.7947 46.1879 81.2385 46.1879C81.7405 46.1879 82.1625 46.0435 82.5044 45.7476L82.8754 46.3755C82.7372 46.5126 82.5262 46.6281 82.2498 46.7291C81.8933 46.859 81.5077 46.924 81.0712 46.924C80.4456 46.924 79.9072 46.7147 79.478 46.2961C78.9833 45.8342 78.7432 45.2064 78.7432 44.4197C78.7432 43.6331 78.9905 42.9475 79.4925 42.4567C79.9436 42.0165 80.4746 41.8 81.0785 41.8C81.7914 41.8 82.3516 41.9948 82.7517 42.3918C83.1446 42.7743 83.341 43.2795 83.341 43.9073C83.341 44.1022 83.3119 44.2826 83.2683 44.4486H83.261ZM81.1149 42.5361C80.7147 42.5361 80.3873 42.6588 80.1182 42.9186C79.8635 43.1568 79.7253 43.4527 79.6889 43.8135H82.4462C82.4462 43.4599 82.3371 43.164 82.1188 42.9258C81.8715 42.666 81.5368 42.5361 81.1149 42.5361Z" fill="#D1242B"/>
<path d="M88.1362 40.9049V42.7813H90.3841V43.5607H88.1362V46H91.228V46.83H87.205V40.0605H91.279V40.8976H88.1362V40.9049Z" fill="#D1242B"/>
<path d="M92.3037 45.4366V39.8652H93.184V45.2923C93.184 45.5593 93.264 45.7614 93.4168 45.9129C93.5769 46.0645 93.7733 46.1439 94.0207 46.1439V46.9305C92.8785 46.9305 92.3037 46.4326 92.3037 45.4366Z" fill="#D1242B"/>
<path d="M99.2534 44.4486H95.6596C95.6596 45.0259 95.8196 45.4734 96.1397 45.7837C96.4235 46.0508 96.7872 46.1879 97.231 46.1879C97.7402 46.1879 98.1622 46.0435 98.4968 45.7476L98.8679 46.3755C98.7369 46.5126 98.5259 46.6281 98.2422 46.7291C97.893 46.859 97.5002 46.924 97.0564 46.924C96.4307 46.924 95.8997 46.7147 95.4632 46.2961C94.9685 45.8342 94.7357 45.2064 94.7357 44.4197C94.7357 43.6331 94.9903 42.9475 95.485 42.4567C95.936 42.0165 96.4526 41.8 97.0709 41.8C97.7839 41.8 98.3368 41.9948 98.7442 42.3918C99.1298 42.7743 99.3335 43.2795 99.3335 43.9073C99.3335 44.1022 99.3116 44.2826 99.2607 44.4486H99.2534ZM97.1073 42.5361C96.7145 42.5361 96.3798 42.6588 96.1179 42.9186C95.8633 43.1568 95.7178 43.4527 95.6741 43.8135H98.4386C98.4386 43.4599 98.3222 43.164 98.104 42.9258C97.8639 42.666 97.5293 42.5361 97.1 42.5361H97.1073Z" fill="#D1242B"/>
<path d="M104.01 42.2907L103.573 42.9114C103.479 42.8248 103.318 42.7382 103.086 42.6588C102.867 42.5794 102.635 42.5361 102.416 42.5361C101.936 42.5361 101.558 42.7093 101.274 43.0341C100.99 43.3733 100.852 43.8279 100.852 44.4125C100.852 44.9971 100.99 45.4301 101.281 45.7332C101.572 46.0363 101.973 46.1951 102.482 46.1951C102.875 46.1951 103.282 46.0363 103.689 45.7332L104.031 46.4765C103.559 46.7797 102.969 46.9312 102.271 46.9312C101.572 46.9312 101.034 46.7075 100.583 46.2528C100.139 45.7982 99.9138 45.1847 99.9138 44.4125C99.9138 43.6403 100.147 42.9908 100.605 42.5145C101.07 42.0381 101.696 41.8 102.496 41.8C102.758 41.8 103.035 41.8505 103.34 41.9588C103.646 42.067 103.864 42.1825 104.01 42.2907Z" fill="#D1242B"/>
<path d="M105.291 42.5783H104.716V41.8855H105.291V40.8463L106.178 40.5143V41.8855H107.539V42.5783H106.178V45.0321C106.178 45.4434 106.244 45.7465 106.389 45.9198C106.535 46.093 106.76 46.1868 107.073 46.1868C107.291 46.1868 107.531 46.129 107.779 46.0136L107.902 46.7858C107.539 46.8796 107.131 46.9229 106.702 46.9229C106.309 46.9229 105.974 46.7713 105.705 46.4899C105.429 46.2012 105.298 45.8331 105.298 45.3857V42.5783H105.291Z" fill="#D1242B"/>
<path d="M111.46 42.7309C111.263 42.601 111.067 42.5288 110.878 42.5288C110.558 42.5288 110.289 42.6731 110.049 42.9618C109.816 43.2505 109.699 43.5969 109.699 43.9938V46.8301H108.819V41.8865H109.699V42.6731C110.027 42.0813 110.5 41.7927 111.14 41.7927C111.293 41.7927 111.525 41.8215 111.824 41.8721L111.46 42.7236V42.7309Z" fill="#D1242B"/>
<path d="M112.883 46.8366V42.6291H112.2V41.893H113.764V46.8366H112.883ZM113.364 40.0238C113.524 40.0238 113.647 40.0743 113.756 40.1826C113.858 40.2908 113.917 40.4207 113.917 40.5651C113.917 40.7094 113.858 40.8465 113.756 40.9548C113.64 41.063 113.516 41.1136 113.364 41.1136C113.211 41.1136 113.087 41.063 112.985 40.9548C112.876 40.8465 112.825 40.7166 112.825 40.5651C112.825 40.4135 112.876 40.2836 112.978 40.1826C113.087 40.0743 113.211 40.0238 113.364 40.0238Z" fill="#D1242B"/>
<path d="M118.936 42.2907L118.499 42.9114C118.412 42.8248 118.252 42.7382 118.027 42.6588C117.801 42.5794 117.575 42.5361 117.357 42.5361C116.87 42.5361 116.499 42.7093 116.215 43.0341C115.931 43.3733 115.793 43.8279 115.793 44.4125C115.793 44.9971 115.931 45.4301 116.215 45.7332C116.506 46.0363 116.906 46.1951 117.415 46.1951C117.816 46.1951 118.208 46.0363 118.616 45.7332L118.972 46.4765C118.492 46.7797 117.903 46.9312 117.204 46.9312C116.506 46.9312 115.96 46.7075 115.517 46.2528C115.073 45.7982 114.84 45.1847 114.84 44.4125C114.84 43.6403 115.073 42.9908 115.538 42.5145C115.997 42.0381 116.622 41.8 117.423 41.8C117.685 41.8 117.961 41.8505 118.267 41.9588C118.565 42.067 118.79 42.1825 118.929 42.2907H118.936Z" fill="#D1242B"/>
<path d="M126.211 46.8365L125.738 45.4076H123.207L122.697 46.8365H121.657L124.422 39.9805H124.676L127.244 46.8365H126.211ZM124.509 41.7486L123.454 44.7292H125.476L124.509 41.7486Z" fill="#D1242B"/>
<path d="M128.782 46.563V48.7714H127.901V41.8865H128.782V42.2906C129.116 41.9587 129.524 41.7927 129.997 41.7927C130.702 41.7927 131.255 42.0092 131.648 42.4422C132.048 42.8824 132.237 43.5247 132.237 44.3619C132.237 45.1197 132.041 45.7259 131.648 46.2022C131.255 46.6785 130.673 46.9167 129.924 46.9167C129.713 46.9167 129.487 46.8806 129.247 46.8084C129.007 46.729 128.854 46.6496 128.782 46.5558V46.563ZM128.782 42.9546V45.8341C128.84 45.9207 128.956 46.0001 129.138 46.0723C129.313 46.1445 129.487 46.1878 129.669 46.1878C130.768 46.1878 131.313 45.5671 131.313 44.3402C131.313 43.7196 131.182 43.2577 130.928 42.969C130.659 42.6803 130.251 42.536 129.676 42.536C129.553 42.536 129.4 42.5865 129.218 42.6659C129.044 42.7525 128.891 42.8463 128.789 42.9546H128.782Z" fill="#D1242B"/>
<path d="M134.09 46.563V48.7714H133.203V41.8865H134.09V42.2906C134.425 41.9587 134.832 41.7927 135.313 41.7927C136.018 41.7927 136.564 42.0092 136.957 42.4422C137.35 42.8824 137.553 43.5247 137.553 44.3619C137.553 45.1197 137.357 45.7259 136.957 46.2022C136.557 46.6785 135.982 46.9167 135.233 46.9167C135.022 46.9167 134.796 46.8806 134.556 46.8084C134.316 46.729 134.156 46.6496 134.09 46.5558V46.563ZM134.09 42.9546V45.8341C134.149 45.9207 134.265 46.0001 134.44 46.0723C134.621 46.1445 134.796 46.1878 134.971 46.1878C136.069 46.1878 136.615 45.5671 136.615 44.3402C136.615 43.7196 136.484 43.2577 136.229 42.969C135.967 42.6803 135.553 42.536 134.978 42.536C134.847 42.536 134.701 42.5865 134.52 42.6659C134.338 42.7525 134.199 42.8463 134.09 42.9546Z" fill="#D1242B"/>
<path d="M138.586 45.4366V39.8652H139.474V45.2923C139.474 45.5593 139.554 45.7614 139.707 45.9129C139.86 46.0645 140.063 46.1439 140.311 46.1439V46.9305C139.168 46.9305 138.586 46.4326 138.586 45.4366Z" fill="#D1242B"/>
<path d="M141.759 46.8366V42.6291H141.068V41.893H142.64V46.8366H141.752H141.759ZM142.24 40.0238C142.392 40.0238 142.523 40.0743 142.632 40.1826C142.742 40.2908 142.792 40.4207 142.792 40.5651C142.792 40.7094 142.742 40.8465 142.632 40.9548C142.523 41.063 142.4 41.1136 142.24 41.1136C142.08 41.1136 141.963 41.063 141.854 40.9548C141.745 40.8465 141.701 40.7166 141.701 40.5651C141.701 40.4135 141.752 40.2836 141.854 40.1826C141.956 40.0743 142.087 40.0238 142.24 40.0238Z" fill="#D1242B"/>
<path d="M146.865 46.2672C146.509 46.7074 145.971 46.9311 145.236 46.9311C144.843 46.9311 144.508 46.7868 144.217 46.5053C143.934 46.2239 143.788 45.8774 143.788 45.4516C143.788 44.9537 144.006 44.5279 144.45 44.1815C144.887 43.8351 145.454 43.6618 146.138 43.6618C146.334 43.6618 146.538 43.7051 146.771 43.7773C146.771 42.9762 146.414 42.5793 145.687 42.5793C145.141 42.5793 144.712 42.7309 144.414 43.0195L144.043 42.2834C144.203 42.1535 144.443 42.0308 144.734 41.937C145.032 41.8432 145.316 41.7927 145.585 41.7927C146.313 41.7927 146.836 41.9514 147.164 42.2762C147.491 42.601 147.658 43.1206 147.658 43.8278V45.6032C147.658 46.0362 147.789 46.3249 148.051 46.4692V46.9095C147.687 46.9095 147.426 46.8589 147.244 46.7579C147.069 46.6569 146.938 46.4909 146.865 46.2527V46.2672ZM146.778 44.4052C146.502 44.3475 146.305 44.3114 146.196 44.3114C145.745 44.3114 145.381 44.4196 145.098 44.6506C144.814 44.8815 144.676 45.1485 144.676 45.4589C144.676 45.9785 144.981 46.2311 145.6 46.2311C146.043 46.2311 146.443 46.0218 146.785 45.596V44.398L146.778 44.4052Z" fill="#D1242B"/>
<path d="M152.126 46.8374V43.9578C152.126 43.431 152.053 43.0629 151.893 42.8537C151.726 42.6444 151.464 42.5361 151.086 42.5361C150.882 42.5361 150.678 42.5938 150.453 42.7165C150.234 42.8392 150.067 42.9836 149.943 43.164V46.8374H149.063V41.8938H149.667L149.943 42.5289C150.234 42.0454 150.715 41.8 151.369 41.8C152.468 41.8 153.013 42.4567 153.013 43.7702V46.8302H152.126V46.8374Z" fill="#D1242B"/>
<path d="M158.026 42.2907L157.589 42.9114C157.502 42.8248 157.342 42.7382 157.116 42.6588C156.884 42.5794 156.665 42.5361 156.447 42.5361C155.96 42.5361 155.581 42.7093 155.305 43.0341C155.021 43.3733 154.876 43.8279 154.876 44.4125C154.876 44.9971 155.014 45.4301 155.312 45.7332C155.596 46.0363 156.003 46.1951 156.513 46.1951C156.905 46.1951 157.313 46.0363 157.713 45.7332L158.062 46.4765C157.589 46.7797 157 46.9312 156.294 46.9312C155.589 46.9312 155.058 46.7075 154.614 46.2528C154.17 45.7982 153.945 45.1847 153.945 44.4125C153.945 43.6403 154.177 42.9908 154.636 42.5145C155.101 42.0381 155.734 41.8 156.534 41.8C156.796 41.8 157.073 41.8505 157.371 41.9588C157.669 42.067 157.888 42.1825 158.033 42.2907H158.026Z" fill="#D1242B"/>
<path d="M163.192 44.4486H159.599C159.599 45.0259 159.759 45.4734 160.079 45.7837C160.362 46.0508 160.726 46.1879 161.17 46.1879C161.679 46.1879 162.094 46.0435 162.436 45.7476L162.807 46.3755C162.669 46.5126 162.465 46.6281 162.181 46.7291C161.825 46.859 161.432 46.924 160.995 46.924C160.362 46.924 159.839 46.7147 159.402 46.2961C158.915 45.8342 158.667 45.2064 158.667 44.4197C158.667 43.6331 158.922 42.9475 159.409 42.4567C159.86 42.0165 160.392 41.8 161.003 41.8C161.708 41.8 162.269 41.9948 162.676 42.3918C163.069 42.7743 163.258 43.2795 163.258 43.9073C163.258 44.1022 163.229 44.2826 163.185 44.4486H163.192ZM161.046 42.5361C160.653 42.5361 160.319 42.6588 160.057 42.9186C159.802 43.1568 159.664 43.4527 159.62 43.8135H162.378C162.378 43.4599 162.269 43.164 162.043 42.9258C161.803 42.666 161.461 42.5361 161.046 42.5361Z" fill="#D1242B"/>
<path d="M163.863 46.5414L164.176 45.7114C164.671 46.0362 165.071 46.195 165.369 46.195C165.907 46.195 166.184 45.964 166.184 45.5094C166.184 45.1846 165.922 44.9032 165.398 44.665C164.983 44.4774 164.714 44.3402 164.576 44.2392C164.431 44.1454 164.307 44.0371 164.205 43.9144C164.103 43.7918 164.023 43.6618 163.972 43.5247C163.921 43.3876 163.899 43.2433 163.899 43.0845C163.899 42.6731 164.045 42.3556 164.343 42.1319C164.642 41.9009 165.034 41.7927 165.507 41.7927C165.878 41.7927 166.329 41.9009 166.889 42.1319L166.635 42.9474C166.286 42.6659 165.929 42.5288 165.58 42.5288C165.369 42.5288 165.194 42.5793 165.049 42.6803C164.903 42.7814 164.831 42.9041 164.831 43.0556C164.831 43.3732 165.013 43.6113 165.376 43.7773L166.009 44.0588C166.395 44.232 166.686 44.4341 166.86 44.6578C167.042 44.8815 167.122 45.163 167.122 45.5022C167.122 45.9496 166.97 46.296 166.657 46.5414C166.337 46.794 165.907 46.9167 165.347 46.9167C164.823 46.9167 164.329 46.7868 163.87 46.527L163.863 46.5414Z" fill="#D1242B"/>
</g>
<defs>
<clipPath id="clip0_1_2253">
<rect width="178.114" height="48.2739" fill="white" transform="translate(0 0.503906)"/>
</clipPath>
</defs>
</svg>
